<svg xmlns="http://www.w3.org/2000/svg" viewBox="0 0 357 630.96"><g id="Layer_2" data-name="Layer 2"><g id="Vector_layer" data-name="Vector layer"><path d="M.07,630.34a1,1,0,0,1,.56-1.29c3-1,5.9-2.13,8.81-3.3,3.09-1.24,6.16-2.51,9.19-3.87,1-.46,1.93-.93,2.89-1.41s2.05-1.05,3.07-1.6c.5-.27,1-.56,1.47-.85l1.56-.91c1-.62,2.07-1.26,3.09-1.9l-.07,0c1.89-1.24,3.75-2.51,5.61-3.81s3.78-2.68,5.69-4c4-2.75,8-5.47,12.1-8,1.05-.63,2.09-1.25,3.15-1.86s1.94-1.09,2.92-1.63c2-1.07,4-2,6-3,2.3-1,4.63-2,7-3s4.65-2,6.94-3.07c1.37-.68,2.71-1.37,4-2.1s2.8-1.6,4.17-2.45l-.11.08a196.87,196.87,0,0,0,19.47-15.2l0,0q7.38-6.39,14.66-12.87c2.34-2.07,4.68-4.14,7-6.27q1.92-1.78,3.78-3.64c1.14-1.14,2.24-2.31,3.34-3.49.76-.86,1.5-1.71,2.24-2.58s1.51-1.86,2.23-2.81c1.43-1.85,2.78-3.78,4.12-5.7l-.07.1q5.8-8.43,11.31-17.08c2.06-3.24,4.12-6.48,6.15-9.74.78-1.27,1.56-2.52,2.31-3.8l1.5-2.54c.47-.79.9-1.62,1.35-2.43.62-1.23,1.24-2.46,1.85-3.7s1.18-2.54,1.75-3.82,1.11-2.59,1.62-3.91,1-2.68,1.51-4l.8-2.3c.25-.71.46-1.42.68-2.13.5-1.57.88-3.15,1.25-4.74.22-1.14.44-2.28.59-3.43.17-1.33.32-2.66.44-4s.16-2.83.19-4.24c0-1.57.07-3.13.17-4.69.08-1.15.18-2.3.32-3.44a33,33,0,0,1,.74-3.69,52.47,52.47,0,0,1,2.76-8.12c.62-1.42,1.26-2.83,1.95-4.22q.51-1,1.05-2.07h0a.6.6,0,0,1,.06-.11h0l.4-.78,0,0c.27-.53.55-1,.83-1.56q2.13-3.93,4.37-7.78c1.47-2.52,3-5,4.57-7.45,2.48-4,5.11-7.84,7.58-11.82s4.92-8.22,7.15-12.45l0,0,0-.07,0,0v0c1.69-3.31,3.34-6.65,4.91-10s2.94-6.53,4.32-9.84q4.47-10.68,8.48-21.54a.61.61,0,0,1-.05.12c.93-2.58,1.83-5.17,2.65-7.78s1.56-5.16,2.29-7.76c1.62-5.8,3.14-11.62,4.47-17.5v0q1.68-7.56,3.06-15.19t2.82-15.18c.51-2.68,1-5.37,1.55-8,.48-2.43.94-4.87,1.34-7.32s.75-4.87,1-7.32.52-4.82.74-7.23c.26-3,.48-5.95.64-8.92.09-1.62.16-3.23.18-4.84,0-1.9,0-3.8-.09-5.7a.57.57,0,0,1,0,.13,75.29,75.29,0,0,0-.82-7.93,50.47,50.47,0,0,0-1.4-5.8c-.37-1.1-.76-2.18-1.18-3.26s-.83-1.93-1.28-2.87c-1.18-2.39-2.45-4.71-3.82-7-1.49-2.5-3-5-4.35-7.57-.61-1.14-1.18-2.32-1.7-3.51s-1-2.52-1.44-3.8-.77-2.4-1.08-3.63c-.63.16-1.25.31-1.89.44-1.39.27-2.78.52-4.18.76a30,30,0,0,1-3.78.44l-.87,0a14.54,14.54,0,0,1-2.08-.14c-.37,0-.75-.13-1.13-.2s-.69-.16-1-.24c-1.63-.38-3.22-.91-4.81-1.45-.66-.22-1.31-.52-1.95-.8s-1.13-.52-1.68-.81c-.31-.16-.63-.32-.93-.5l-.93-.57c-.23-.14-.46-.32-.68-.47-.4-.27-.78-.55-1.16-.84a74.5,74.5,0,0,1-6.25-5.25c-2.1-2-4.11-4-6.1-6.07s-3.83-4.07-5.68-6.17c-2-2.28-3.87-4.7-5.71-7.12-.84-1.1-1.65-2.21-2.46-3.31-1-1.33-1.88-2.71-2.79-4.07q-2.66-4-5.27-8c-1.57-2.39-3.12-4.78-4.72-7.15s-3.37-4.94-5.08-7.4c-.78-1.12-1.57-2.24-2.31-3.39-.86-1.34-1.7-2.71-2.51-4.08-1.62-2.75-3.1-5.56-4.51-8.42-1.29-2.64-2.46-5.35-3.56-8.08-.48-1.2-.94-2.4-1.33-3.62-.48-1.53-.91-3.06-1.3-4.61-.29-1.19-.56-2.38-.75-3.59-.24-1.5-.43-3-.57-4.51-.11-1.09-.21-2.2-.24-3.3,0-1.37,0-2.74.05-4.1a32.72,32.72,0,0,1,.52-4.53,42.88,42.88,0,0,1,1.15-4.73c.43-1.38.94-2.75,1.49-4.09s1.26-2.79,1.92-4.16c1.32-2.71,2.71-5.4,4.23-8s3-5,4.66-7.44,3.45-4.85,5.24-7.23,3.73-4.83,5.69-7.16c1.8-2.13,3.68-4.18,5.59-6.21,2.15-2.31,4.39-4.54,6.64-6.75q1.59-1.55,3.22-3c1-.93,2.1-1.82,3.17-2.7s2-1.49,3.06-2.2q2-1.38,4.05-2.66a66.44,66.44,0,0,1,7.09-4,56.43,56.43,0,0,1,6.63-2.63,69,69,0,0,1,7.06-1.82,62,62,0,0,1,7.19-.95c1.17-.1,2.34-.17,3.51-.23,1.37-.07,2.73-.07,4.09-.08,2.67,0,5.34,0,8,0,2.84.11,5.67.31,8.5.54s5.72.53,8.56.87,5.8.74,8.68,1.19l.33-.09c2.7-.77,5.41-1.47,8.15-2.06s5.36-1,8.06-1.45,5.6-.79,8.4-1.17,5.39-.75,8.1-1A55.71,55.71,0,0,1,313,1a45.34,45.34,0,0,1,7.14,1.92c1.18.42,2.35.89,3.52,1.37q2.32.93,4.61,2a43,43,0,0,1,3.88,2c1.13.65,2.21,1.38,3.29,2.11s1.89,1.36,2.82,2.06a34.4,34.4,0,0,1,3.17,2.74,38.29,38.29,0,0,1,2.72,3c.93,1.1,1.84,2.22,2.71,3.37a30.36,30.36,0,0,1,1.89,2.88q1.13,1.92,2.15,3.87a42.89,42.89,0,0,1,3.07,7.3c.35,1.16.67,2.33.94,3.51s.62,2.66.85,4,.43,2.6.57,3.91c.16,1.48.29,3,.4,4.44.08,1.25.14,2.51.18,3.77.06,1.53.09,3.07.07,4.61,0,1.19-.08,2.38-.2,3.57a44.3,44.3,0,0,1-.86,5.11c-.26,1.19-.55,2.37-.84,3.55-.37,1.48-.81,2.93-1.27,4.38-.71,2.25-1.44,4.52-2.26,6.73.07.34.13.68.19,1,.26,1.54.42,3.09.58,4.64a34.5,34.5,0,0,1,.11,4.66c-.05,1.58-.18,3.16-.38,4.72a39.76,39.76,0,0,1-1.77,8,35.82,35.82,0,0,1-1.57,3.67c-.61,1.3-1.27,2.57-2,3.82-.6,1.07-1.2,2.13-1.83,3.17s-1.42,2.24-2.17,3.34c-1.39,2-2.85,4-4.32,6-1.62,2.17-3.31,4.3-5,6.41s-3.6,4.33-5.55,6.37c-.95,1-2,1.95-3,2.9s-2.05,1.9-3.11,2.83-2.16,1.76-3.28,2.6-2.44,1.75-3.67,2.61q-3.33,2.33-6.69,4.6-3.63,2.46-7.31,4.84c-1.08.7-2.21,1.32-3.33,1.93s-2.43,1.21-3.68,1.74-2.68,1-4.05,1.47-2.62.82-3.95,1.16c-.63.16-1.27.28-1.89.41l-1.68.3a31.91,31.91,0,0,1-3.77.3c-.64,0-1.27,0-1.9,0-1.15.51-2.32,1-3.49,1.46s-2.54.88-3.82,1.28c-1.43.44-2.88.8-4.35,1.1q-1,.22-2.07.42c-.23,0-.47.11-.7.13l-1.19.2c-.56.72-1.15,1.41-1.78,2.08-1,1-2,2-3,3s-2.21,2-3.35,3c-2.25,1.9-4.56,3.74-6.95,5.46-.61.43-1.25.84-1.88,1.24s-1.24.76-1.89,1.09a33,33,0,0,1-4.06,1.73c-1.2.43-2.41.84-3.63,1.2l-1,.31c.25,1,.55,1.95.85,2.91s.67,1.94,1,2.9.81,2,1.27,2.92l-.06-.12c1.29,2.67,2.78,5.24,4.31,7.79.64,1.07,1.29,2.14,1.92,3.22.72,1.24,1.4,2.5,2.06,3.77q.83,1.59,1.56,3.21c.63,1.39,1.16,2.81,1.65,4.24a39.67,39.67,0,0,1,1.15,4.14c.17.73.33,1.46.47,2.19s.24,1.45.34,2.18c.22,1.58.37,3.16.49,4.75s.15,3.25.18,4.88c0,2.78-.07,5.55-.23,8.32-.32,5.43-.79,10.86-1.45,16.27-.73,6-1.93,11.9-3.07,17.83s-2.27,12.05-3.38,18.08c-.59,3.14-1.18,6.28-1.81,9.41-.58,2.89-1.2,5.78-1.87,8.65-1.37,6-2.95,11.91-4.64,17.8-.8,2.78-1.62,5.56-2.54,8.31s-1.89,5.49-2.92,8.2c-2.07,5.52-4.25,11-6.48,16.47-2,4.92-4.14,9.78-6.43,14.58-1.24,2.61-2.53,5.19-3.84,7.76s-2.77,5.15-4.24,7.66c-1.7,2.92-3.49,5.78-5.32,8.62s-3.82,5.87-5.68,8.84c-1.62,2.57-3.21,5.17-4.74,7.8s-3.06,5.4-4.52,8.13l0-.07,0,.09v0c-.16.33-.33.66-.5,1l0,.05h0l-.95,1.9c-1.05,2.11-2,4.27-2.88,6.47a67.89,67.89,0,0,0-2,6.7.24.24,0,0,0,0-.08l0,.1v0c-.13.63-.27,1.26-.35,1.9s-.19,1.59-.26,2.38q-.18,2.22-.24,4.44c0,1.48-.06,3-.13,4.43s-.22,2.75-.37,4.12c-.07.63-.15,1.26-.25,1.89-.06.42-.13.84-.2,1.27s-.2,1-.3,1.57c-.13.71-.32,1.42-.49,2.13s-.42,1.55-.64,2.32-.44,1.45-.68,2.17-.56,1.67-.85,2.51c-1,2.91-2.14,5.78-3.38,8.6s-2.68,5.87-4.23,8.7c-.34.62-.68,1.24-1,1.85l-1.44,2.44c-.79,1.34-1.62,2.65-2.44,4q-5.31,8.55-10.84,17c-1.71,2.61-3.46,5.2-5.22,7.78s-3.48,5-5.31,7.43a85.86,85.86,0,0,1-6,7.05c-.48.51-1,1-1.48,1.51s-1,1-1.55,1.55c-1.18,1.14-2.36,2.27-3.58,3.38-4.89,4.44-9.86,8.81-14.82,13.17-4.67,4.1-9.37,8.15-14.19,12.08-2.52,2.05-5.07,4.06-7.73,5.94-1.31.92-2.62,1.86-4,2.7-1.68,1-3.38,2-5.11,2.94-2.94,1.58-6,2.93-9.06,4.23-1.83.77-3.66,1.54-5.48,2.33-1.61.7-3.21,1.44-4.8,2.18l.12-.06c-1.17.58-2.33,1.17-3.48,1.78s-2.38,1.3-3.56,2c-2.35,1.35-4.64,2.81-6.93,4.26-2,1.3-3.94,2.62-5.89,4s-3.76,2.63-5.64,4-3.92,2.77-5.92,4.08-4.12,2.64-6.25,3.87l-1.46.84c-.62.36-1.27.68-1.89,1-.9.47-1.81.91-2.72,1.35-1.08.52-2.16,1-3.25,1.51s-2.38,1-3.57,1.51c-4.21,1.76-8.46,3.44-12.78,4.91A1.19,1.19,0,0,1,1,631,1,1,0,0,1,.07,630.34ZM221,190.33l.64,0h-.14c.91-.06,1.8-.16,2.7-.28s2-.33,3-.51l-.13,0c1.3-.25,2.61-.51,3.9-.83-.17-.78-.32-1.56-.46-2.34-.23-1.31-.37-2.63-.5-3.95a36.05,36.05,0,0,1-.19-4.53,40.18,40.18,0,0,1,.34-4.23,21.8,21.8,0,0,1,1-3.94,19.86,19.86,0,0,1,1.42-3.48c.29-.53.6-1.05.94-1.55a15.6,15.6,0,0,1,1.07-1.36c.33-.4.67-.78,1-1.16-.21-.35-.41-.71-.61-1.08a14.82,14.82,0,0,1-1.08-2.72,16.24,16.24,0,0,1-.52-5.72,19.31,19.31,0,0,1,.42-2.62,21.76,21.76,0,0,1,.92-2.94,30.81,30.81,0,0,1,1.34-2.92,33.57,33.57,0,0,1,1.82-3.13,31.65,31.65,0,0,1,4.63-5.56,69.75,69.75,0,0,1,6.6-5.53c1-.76,2.07-1.52,3.15-2.22l.26-.17c.13-.1.28-.19.43-.29l2-1.21c.65-.38,1.31-.75,2-1.1s1.62-.77,2.44-1.14,1.49-.67,2.24-1c-.6-1.14-1.24-2.25-1.92-3.35q-.56-.83-1.14-1.65c-.38-.51-.8-1-1.21-1.47a.39.39,0,0,1,.08.1c-.41-.48-.84-.93-1.28-1.38s-.9-.85-1.36-1.27-.75-.64-1.13-.93-.7-.5-1.05-.75l0,0a57.14,57.14,0,0,0-5.37-3.2c-4.71-2.41-9.59-4.51-14.09-7.29-1.26-.79-2.5-1.59-3.7-2.48-.6-.44-1.2-.91-1.79-1.38a18.77,18.77,0,0,1-1.53-1.3,39.3,39.3,0,0,1-3-3.2c-.5-.6-1-1.23-1.43-1.87s-.86-1.21-1.26-1.83a53.75,53.75,0,0,1-6.21-13.08c-.38-1.2-.72-2.41-1.05-3.63-.15-.59-.27-1.19-.41-1.78s-.31-1.44-.45-2.16a65,65,0,0,1-1-7.48,43,43,0,0,1,.31-8.93,52.1,52.1,0,0,1,1.94-8.07,73.13,73.13,0,0,1,3.23-8.85c.27-.63.6-1.23.91-1.84s.71-1.32,1.08-2a24.24,24.24,0,0,1,2.3-3.38,20.26,20.26,0,0,1,2.68-2.64c1.15-1,2.37-1.91,3.59-2.81,2.09-1.55,4.26-3,6.45-4.41,1.11-.72,2.24-1.43,3.4-2.09s2.33-1.28,3.51-1.88c2.29-1.16,4.63-2.24,7-3.24a109.18,109.18,0,0,1,10.81-3.82l-1-.13c-1.64-.22-3.29-.43-4.93-.63s-3.45-.36-5.18-.52c-3.78-.33-7.56-.63-11.36-.71-1.67,0-3.34,0-5,0-1.88,0-3.76,0-5.64.08h.13c-1.58.08-3.16.2-4.74.34s-3.12.32-4.67.59a68.49,68.49,0,0,0-8.35,2.11l.13,0a61.18,61.18,0,0,0-6.52,2.62,82.68,82.68,0,0,0-8.1,4.69c-1.18.78-2.35,1.58-3.51,2.39-.51.37-1,.73-1.53,1.12-.72.56-1.42,1.15-2.12,1.74l.05,0c-2.51,2.17-4.86,4.5-7.2,6.85s-4.9,5-7.25,7.64h0c-2.25,2.54-4.41,5.17-6.48,7.86s-4.08,5.43-6,8.21l.07-.1c-1.38,2-2.68,4-3.94,6.11s-2.52,4.37-3.7,6.61a89.48,89.48,0,0,0-4,8.66l0-.09c-.35,1-.69,1.93-1,2.91s-.52,2-.75,3a39.1,39.1,0,0,0-.63,3.9,56.47,56.47,0,0,0-.14,5.82c.07,1.18.17,2.37.28,3.55.12,1.33.33,2.67.54,4s.54,2.58.86,3.87.76,2.76,1.19,4.12a.93.93,0,0,0,0-.13A107.41,107.41,0,0,0,152.75,115l0-.06,0,.08,0,0,0,0c.48,1,1,2,1.46,2.91.66,1.26,1.34,2.5,2,3.74,1.09,1.92,2.22,3.8,3.41,5.66,2.14,3.2,4.37,6.35,6.55,9.53s4.22,6.36,6.31,9.55c2.34,3.54,4.66,7.1,7.09,10.58,1.08,1.54,2.23,3,3.36,4.51q1.92,2.52,3.94,4.94c1,1.18,2,2.34,3.07,3.48s2.2,2.36,3.31,3.52c2.16,2.27,4.39,4.49,6.68,6.63,1.11,1,2.24,2,3.41,2.95.6.48,1.19,1,1.81,1.42s1.36,1,2.05,1.48h0l.92.56c.37.22.74.41,1.12.61l1.27.59c.59.26,1.19.51,1.8.74.78.27,1.56.53,2.35.76.58.18,1.16.34,1.75.5s.95.24,1.43.35l.8.14a9.91,9.91,0,0,0,1.32.16h-.13A8.81,8.81,0,0,0,221,190.33Zm11.92-2.13,2.38-.73,2.69-.94c.89-.31,1.74-.7,2.6-1.09.46-.24.92-.47,1.37-.74s1.12-.68,1.67-1c1.46-1,2.89-2,4.27-3.12s2.87-2.32,4.28-3.51c1-.88,2-1.76,3-2.66s1.94-1.86,2.86-2.85l.07-.08c-.71.05-1.43.08-2.14.1a37.67,37.67,0,0,1-4.63-.1,14.47,14.47,0,0,1-1.85-.27c-.64-.13-1.25-.32-1.87-.51a22.26,22.26,0,0,1-2.9-1.22,35.29,35.29,0,0,1-3.25-1.79c-.5-.31-1-.61-1.47-1s-.9-.7-1.34-1.08a17.4,17.4,0,0,1-1.77-1.77c-.55.63-1.09,1.27-1.6,1.94-.31.47-.6.94-.87,1.44s-.56,1.2-.81,1.83a.56.56,0,0,0,0-.12,39.55,39.55,0,0,0-1.35,4.38c-.11.69-.2,1.37-.27,2.07-.11,1.46-.18,2.91-.15,4.37v-.13a55.15,55.15,0,0,0,.73,6.77C232.69,187,232.81,187.6,232.93,188.2Zm20.76-18.62c.89,0,1.78,0,2.68,0h-.13c1,0,2-.11,3-.22l.61-.08c.17-.22.33-.45.49-.67.36-.54.72-1.08,1-1.65s.77-1.37,1.14-2.07.85-1.69,1.25-2.54l0-.1c-.82-.51-1.62-1-2.42-1.58-1.31-.9-2.62-1.82-4-2.6-.3-.15-.61-.29-.92-.42a28.38,28.38,0,0,0-2.82-.83c-.55-.11-1.08-.19-1.63-.27l-.55,0h0a34.44,34.44,0,0,0-3.5.42l-.71.16h0c-.45.14-.84.28-1.28.46l-.9.41c-.61.32-1.22.64-1.81,1s-1.39.81-2.06,1.24c-.84.58-1.64,1.19-2.42,1.84l-.52.46.18.21c.44.49.91,1,1.39,1.39h0q.63.55,1.29,1a36.63,36.63,0,0,0,3.67,2.19l-.12,0c1,.5,2,1,3,1.37l0,0c.7.25,1.41.45,2.13.63.42.09.83.15,1.25.21C252,169.51,252.82,169.56,253.69,169.58Zm9.84-2.37c-.29.53-.6,1-.92,1.57,1.13-.22,2.25-.45,3.38-.71,1.3-.31,2.59-.7,3.87-1.1l-.13,0c.61-.2,1.21-.39,1.81-.6l1-.39-.54-.12a20.84,20.84,0,0,1-3.25-1.13c-1-.4-1.9-.85-2.82-1.34l-.39-.2C265,164.58,264.25,165.91,263.53,167.21Zm12.7-2.73h0l1.17-.53c1.34-.65,2.66-1.32,4-2s2.71-1.59,4-2.44c2.84-1.9,5.66-3.84,8.37-5.92,1.31-1,2.63-2,3.9-3s2.56-2.11,3.82-3.19l-.1.08c2.42-2.12,4.8-4.28,7.1-6.51s4.61-4.61,6.8-7c.93-1.06,1.83-2.13,2.72-3.21s1.85-2.3,2.75-3.46c1.85-2.35,3.65-4.73,5.43-7.13,1.64-2.2,3.25-4.42,4.87-6.64s3.21-4.44,4.79-6.68l-.07.11q3.09-4.5,6-9.12c1.7-2.71,3.29-5.49,4.8-8.31.58-1.15,1.15-2.31,1.7-3.48.46-1,.85-2,1.23-3,0-.07,0-.15-.05-.23-.15-.59-.32-1.18-.49-1.76-.33-.93-.67-1.87-1.05-2.79S347,76,346.46,75l0,.08c-1.31-2.72-2.69-5.42-4.17-8-1.67-3-3.45-5.89-5.31-8.75v0c-2.69-4.11-5.4-8.22-8.18-12.27-1.56-2.25-3.15-4.48-4.82-6.65s-3.28-4-5-6l.06.07c-1.5-1.74-3-3.47-4.6-5.14-1.83-1.93-3.75-3.76-5.71-5.55l0,0-.09-.07h0c-1.4-1.22-2.88-2.32-4.38-3.4l0,0,0,0-.07-.05,0,0c-1.53-1-3.11-2-4.73-2.86a47.26,47.26,0,0,0-5-2.16,48.05,48.05,0,0,0-4.89-1.42h0c-1.77-.39-3.57-.71-5.36-1s-3.78-.67-5.67-1c-3.4-.54-6.79-1-10.17-1.65-1.74-.31-3.47-.62-5.21-.9-2.54.73-5.07,1.49-7.58,2.3h0c-2.07.68-4.12,1.45-6.15,2.25s-4.13,1.77-6.15,2.73l.12,0c-1.6.77-3.17,1.58-4.73,2.44-1.75,1-3.42,2-5.08,3.12l.05,0a96.43,96.43,0,0,0-8.63,6.28c-.65.56-1.28,1.14-1.89,1.75-.29.32-.57.65-.83,1s-.44.59-.66.89c-.43.64-.86,1.28-1.24,2-.48.86-.94,1.72-1.39,2.59q-.49,1-1,2.07c-.33.75-.61,1.52-.9,2.29v0a88.42,88.42,0,0,0-3.17,10.44c-.16.74-.31,1.49-.43,2.24s-.2,1.56-.27,2.34-.14,1.72-.17,2.58,0,1.74,0,2.61a.66.66,0,0,1,0-.14,58.54,58.54,0,0,0,.78,7c.28,1.57.61,3.13.95,4.68s.79,3,1.25,4.53a.5.5,0,0,0,0-.13c.32,1,.64,1.91,1,2.85s.84,2.08,1.31,3.1h0c.53,1.1,1.08,2.18,1.66,3.25s1.35,2.35,2.09,3.49c.44.65.9,1.3,1.35,2,.61.85,1.28,1.65,2,2.44l-.08-.09c.69.76,1.4,1.49,2.14,2.21A51.33,51.33,0,0,0,232,98.51l-.06-.05c1.19.79,2.39,1.56,3.62,2.27s2.3,1.28,3.47,1.89c2.31,1.19,4.64,2.31,7,3.45a67.53,67.53,0,0,1,6,3.27c.92.58,1.81,1.18,2.69,1.81a28.15,28.15,0,0,1,2.91,2.54A25.64,25.64,0,0,1,260,116.4a30.2,30.2,0,0,1,2.39,3.62c.4.67.77,1.35,1.12,2,1.69-.7,3.38-1.36,5.08-2l4.09-1.57c1.69-.66,3.33-1.4,5-2.17.86-.42,1.71-.85,2.55-1.32s1.47-.88,2.2-1.34l-.11.07c1.16-.76,2.29-1.57,3.41-2.4s2.31-1.85,3.43-2.81l-.11.09a47,47,0,0,0,3.5-3.26l-.09.1c.44-.5.88-1,1.29-1.53s.77-1,1.14-1.56l-.08.1A38.28,38.28,0,0,0,296.86,99l0,.07,0-.08,0,0,0,0c.26-.5.5-1,.74-1.52s.41-1,.59-1.49v0l0-.06,0-.06,0,0c.41-1.23.76-2.47,1.06-3.74a34.27,34.27,0,0,0,.59-3.51c0-.58.07-1.15.08-1.73s0-1.18,0-1.77v.13a40,40,0,0,0-.45-4.51c-.11-.52-.21-1-.35-1.55s-.28-1-.44-1.49a.56.56,0,0,1,0,.12c-.18-.57-.38-1.12-.61-1.68s-.45-1-.68-1.5c-.43-.86-.88-1.71-1.39-2.53-.38-.55-.79-1.08-1.22-1.6-.58-.65-1.17-1.27-1.8-1.88-.38-.32-.76-.62-1.16-.91-.68-.43-1.37-.83-2.08-1.2-1-.5-2.07-.95-3.13-1.35h.05l-.07,0-.05,0,.05,0c-.54-.18-1.08-.34-1.63-.47a26.8,26.8,0,0,0-3.2-.46c-1.37-.08-2.73,0-4.1,0h.13c-1.16,0-2.31.13-3.47.27s-2.23.3-3.34.49c-1.72.31-3.42.64-5.11,1s-3.52.9-5.26,1.45l.13,0c-1.16.38-2.32.78-3.47,1.21-.94.35-1.85.77-2.76,1.2l.08,0a46.07,46.07,0,0,0-4.18,2.31,34.19,34.19,0,0,0-3.35,2.53.39.39,0,0,1,.1-.08,20.89,20.89,0,0,0-1.63,1.63c-.69.79-1.33,1.61-1.94,2.46l.07-.11a27.38,27.38,0,0,0-1.58,2.66,15.88,15.88,0,0,0-.73,1.63,23.66,23.66,0,0,0-.77,2.61,15.92,15.92,0,0,0-.3,1.79c0,.61-.07,1.22,0,1.83v0c0,.46.1.91.17,1.36a19,19,0,0,0,.47,1.91s0-.09,0-.13c.23.69.47,1.37.76,2s.69,1.28,1.06,1.9c.31.45.63.88,1,1.3s.75.75,1.13,1.12c.74.65,1.51,1.25,2.3,1.83.33.21.66.42,1,.61a25.55,25.55,0,0,0,2.64,1.13h0l.11,0-.07,0c1.59.54,3.19,1,4.83,1.4,1,.19,1.93.33,2.9.46a37.74,37.74,0,0,0,4.12,0h-.13a44.78,44.78,0,0,0,5.54-.54c1.19-.21,2.37-.47,3.55-.78s2.62-.75,3.91-1.16h0c.92-.31,1.84-.63,2.76-1s1.53-.66,2.28-1,1.58-.8,2.35-1.22,1.6-.93,2.38-1.44l-.11.07c.61-.4,1.22-.81,1.82-1.23s1.05-.79,1.55-1.21.72-.67,1.07-1,.71-.86,1-1.32l.42-.73q.27-.54.51-1.11l.1-.31c.07-.32.11-.63.15-1v-.31c0-.22-.06-.44-.1-.67,0,0,0,.09,0,.14s-.05-.18-.07-.27l-.11-.3.06.12a5.77,5.77,0,0,0-.29-.55c-.21-.3-.43-.59-.67-.88l-.5-.51-.59-.45c-.5-.34-1-.65-1.54-.94-.25-.12-.5-.23-.76-.33-.43-.14-.87-.26-1.32-.37-.81-.16-1.61-.29-2.42-.38a59.45,59.45,0,0,0-7.31-.1h.13a76.47,76.47,0,0,0-9.06,1,44,44,0,0,0-4.8,1.14l.08,0c-.41.14-.82.28-1.22.45s-1.06.56-1.57.88c-.32.21-.62.45-.92.69a1,1,0,0,1-1.2-1.6,13.76,13.76,0,0,1,3.23-1.95c.42-.18.88-.3,1.32-.44s1.14-.33,1.73-.47c1.35-.34,2.73-.6,4.11-.82a68.66,68.66,0,0,1,15.09-.75,22.81,22.81,0,0,1,3,.41c.44.09.87.2,1.3.32a8.16,8.16,0,0,1,1.48.59,14.22,14.22,0,0,1,2.22,1.39A7.72,7.72,0,0,1,292.79,86a6.47,6.47,0,0,1,.72,1.38,4.34,4.34,0,0,1,.16.62,6.27,6.27,0,0,1,.11.87,7.11,7.11,0,0,1-.06.92,4,4,0,0,1-.16.91,12.38,12.38,0,0,1-.65,1.55,12.07,12.07,0,0,1-1.39,2.14,15.72,15.72,0,0,1-2.3,2.24,34.78,34.78,0,0,1-3.3,2.31,41.32,41.32,0,0,1-3.89,2.2,32.94,32.94,0,0,1-3.43,1.54c-1.43.54-2.89,1-4.35,1.45a44,44,0,0,1-7.52,1.68c-1.25.14-2.5.25-3.76.31s-2.43.1-3.64.06a26.21,26.21,0,0,1-4.15-.56c-.69-.14-1.36-.34-2-.52s-1.61-.47-2.4-.73a22,22,0,0,1-3.31-1.34,14,14,0,0,1-1.45-.84c-.56-.37-1.09-.8-1.62-1.22s-.81-.69-1.2-1.06a14.14,14.14,0,0,1-1.09-1.1A17,17,0,0,1,241,97.36c-.35-.52-.64-1.08-.95-1.64a14.29,14.29,0,0,1-1.12-2.82,17.93,17.93,0,0,1-.65-3.06,13.11,13.11,0,0,1,0-2.73,18.9,18.9,0,0,1,.6-3,17.41,17.41,0,0,1,.86-2.52A24.45,24.45,0,0,1,241.11,79a27.16,27.16,0,0,1,3.31-4.39,18.85,18.85,0,0,1,2.07-1.93,33,33,0,0,1,2.8-2.06c.87-.58,1.79-1.09,2.72-1.59s1.9-1,2.88-1.4a56.47,56.47,0,0,1,6.79-2.41,77.63,77.63,0,0,1,7.67-1.81,57.48,57.48,0,0,1,7.6-1c1.15-.06,2.31-.09,3.46-.08a26.84,26.84,0,0,1,3.57.29,17.34,17.34,0,0,1,3.25.8,29.06,29.06,0,0,1,3.35,1.43A18.14,18.14,0,0,1,293,66.23c.43.31.84.63,1.25,1s.87.85,1.29,1.29a18.34,18.34,0,0,1,1.94,2.38A22.52,22.52,0,0,1,299.23,74c.24.52.48,1,.71,1.56s.43,1.11.61,1.68a25.92,25.92,0,0,1,.92,3.67,37.58,37.58,0,0,1,.4,4,32.8,32.8,0,0,1,0,3.71,33.2,33.2,0,0,1-1.43,7,27.81,27.81,0,0,1-2.84,6.2,30.45,30.45,0,0,1-3,4.24,24.38,24.38,0,0,1-1.78,1.88c-.8.76-1.63,1.49-2.46,2.2a57.11,57.11,0,0,1-9.15,6.62,58.72,58.72,0,0,1-5.41,2.64c-1.85.81-3.74,1.5-5.62,2.22s-3.73,1.46-5.59,2.22l-.15.07c.6,1.28,1.11,2.61,1.62,3.93,1,2.5,1.83,5,2.58,7.63a37.91,37.91,0,0,1,.92,4,29.58,29.58,0,0,1,.42,4.21,31.77,31.77,0,0,1-.13,3.9,41.16,41.16,0,0,1-.67,4.43c-.25,1.3-.54,2.6-.87,3.88-.38,1.48-.91,2.91-1.43,4.34-.15.42-.31.83-.48,1.24l.81.43c1.2.61,2.42,1.14,3.67,1.63.35.13.69.25,1,.35l1,.25C274,164.24,275.11,164.37,276.23,164.48Zm73.2-76.37c-.6,1.23-1.22,2.45-1.87,3.65-1.42,2.6-2.93,5.13-4.5,7.64q-2.64,4.2-5.46,8.29c-1.58,2.3-3.23,4.55-4.87,6.8-1.74,2.4-3.48,4.8-5.25,7.17s-3.7,4.91-5.6,7.33-3.84,4.82-5.92,7.09c-1,1.09-2,2.15-3.07,3.21s-2.25,2.27-3.39,3.38c-2.18,2.12-4.45,4.15-6.73,6.15s-4.44,3.74-6.74,5.51q-1.77,1.33-3.55,2.66c-1.42,1-2.86,2-4.31,3-1.17.81-2.36,1.59-3.57,2.33s-2.4,1.4-3.63,2.06c.56,0,1.12-.15,1.68-.24,1-.18,2-.37,3-.62,1.2-.3,2.39-.68,3.58-1.05h0c1-.34,2-.68,3-1.06s1.85-.77,2.76-1.19c1.13-.56,2.23-1.16,3.33-1.77s2.14-1.32,3.19-2l-.08,0c3.2-2.1,6.37-4.25,9.53-6.42a118.34,118.34,0,0,0,9.61-7l-.09.08a95.17,95.17,0,0,0,7.94-7.75c2.38-2.69,4.62-5.5,6.83-8.34,2-2.56,3.9-5.18,5.75-7.83.86-1.27,1.72-2.55,2.5-3.87.94-1.57,1.82-3.16,2.67-4.77s1.55-3.22,2.21-4.89c.41-1.21.76-2.44,1.06-3.69a.53.53,0,0,1,0,.12c.21-1,.4-2,.56-3s.28-2.1.38-3.16c.06-.87.12-1.75.15-2.63,0-1.11,0-2.23,0-3.34v.13c-.07-1-.17-2-.28-3,0-.15,0-.3,0-.45C349.88,87.15,349.66,87.63,349.43,88.11ZM237.18,160.77a28.35,28.35,0,0,1,2.6-2,36.38,36.38,0,0,1,3.6-2.15c.49-.26,1-.51,1.48-.74.27-.13.54-.24.81-.35a11.91,11.91,0,0,1,1.85-.55c.63-.14,1.29-.2,1.94-.29l1.17-.14a7.92,7.92,0,0,1,1.54,0,12.1,12.1,0,0,1,1.6.24c.63.13,1.26.29,1.87.47a13.83,13.83,0,0,1,3,1.18c.9.5,1.76,1.08,2.61,1.66s1.84,1.26,2.77,1.87l.65.42.33-.83s0,0,0,.06c.36-1,.72-2,1.05-3a30.76,30.76,0,0,0,.79-3l0,.13c.23-1.06.45-2.12.65-3.19s.32-2.09.44-3.14c.06-.73.11-1.46.12-2.19s0-1.6,0-2.4c-.09-1.14-.22-2.26-.42-3.38-.18-.93-.39-1.86-.63-2.78s-.58-2-.88-3a.65.65,0,0,0,0,.13,85.47,85.47,0,0,0-3.48-9.14q-2.18.93-4.31,1.93l.06,0c-1.47.75-2.89,1.59-4.29,2.48l.11-.08-.8.53.11-.07q-1.86,1.26-3.66,2.61c-1.27,1-2.5,2-3.71,3l.1-.08c-1.25,1.1-2.48,2.22-3.62,3.44-.46.52-.92,1-1.34,1.59s-.81,1.08-1.2,1.63h0l-.07.09,0,0a35.31,35.31,0,0,0-2,3.39,34.08,34.08,0,0,0-1.48,3.33,22,22,0,0,0-.67,2.23s0-.08,0-.12a22.62,22.62,0,0,0-.38,2.33c0,.58-.05,1.15,0,1.73v0c0,.6.08,1.18.16,1.78s.25,1.17.41,1.75a17.46,17.46,0,0,0,.67,1.69C236.83,160.12,237,160.45,237.18,160.77Zm34.88-153c2.92.49,5.85.9,8.77,1.39,1.55.26,3.09.53,4.63.81s3.07.56,4.59.9a44.88,44.88,0,0,1,8.37,2.77,36.82,36.82,0,0,1,3.38,1.7c1.15.65,2.28,1.35,3.38,2.1.95.65,1.87,1.34,2.79,2,1.17.88,2.25,1.86,3.32,2.84s2.24,2.14,3.33,3.23,2.17,2.25,3.21,3.41c1.91,2.12,3.75,4.29,5.57,6.49.94,1.13,1.85,2.28,2.75,3.44,1,1.35,2,2.74,3,4.12,1.63,2.29,3.19,4.63,4.75,7,1.67,2.53,3.36,5,5,7.58s3.4,5.39,5,8.17c.66,1.17,1.31,2.34,1.94,3.54s1.35,2.66,2,4c.54,1.1,1.05,2.22,1.55,3.33s.86,2.09,1.24,3.15c.53-1.56,1-3.14,1.54-4.71.73-2.31,1.3-4.65,1.83-7v0c.19-.89.37-1.77.52-2.66s.26-1.79.35-2.68a71.41,71.41,0,0,0,.07-7.88v.14c-.09-2-.21-4.09-.4-6.13s-.44-3.82-.77-5.72c-.47-2.43-1-4.84-1.75-7.22-.22-.67-.44-1.34-.7-2-.35-.89-.73-1.77-1.13-2.64l0,.06A69.17,69.17,0,0,0,346,23.63h0c-1.09-1.56-2.29-3-3.51-4.5l0,0c-.46-.52-.92-1-1.39-1.55-.61-.67-1.26-1.3-1.92-1.91A53.42,53.42,0,0,0,334.42,12c-.74-.5-1.48-1-2.23-1.48s-1.74-1-2.62-1.5a106.59,106.59,0,0,0-10-4.26l0,0-.1,0h0a51.12,51.12,0,0,0-5-1.48c-1.08-.22-2.16-.43-3.25-.6-1.36-.22-2.74-.36-4.11-.49A54.31,54.31,0,0,0,300.7,2h0c-4.15.2-8.26.8-12.36,1.36s-8.31,1.12-12.44,1.84c-2.69.51-5.38,1.08-8,1.75Z"/></g></g></svg>