<svg xmlns="http://www.w3.org/2000/svg" viewBox="0 0 798.85 438.88"><g id="Layer_2" data-name="Layer 2"><g id="Vector_layer" data-name="Vector layer"><path d="M658,438.83a22.47,22.47,0,0,1-4-.67,20.08,20.08,0,0,1-4.37-1.66,29,29,0,0,1-4-2.59c-.61-.48-1.19-1-1.76-1.53-.3-.29-.58-.61-.86-.93s-.63-.71-.93-1.07a33.71,33.71,0,0,1-3-4.25,53,53,0,0,1-2.64-5.07c-.5-1.09-1-2.22-1.37-3.34s-.86-2.5-1.25-3.76c-.8-2.63-1.48-5.3-2.17-8-.74-2.91-1.46-5.82-2.23-8.71-.39-1.47-.78-2.93-1.21-4.38s-.92-3.08-1.41-4.62c-.4-1.18-.83-2.34-1.3-3.5s-.9-2.09-1.39-3.12-1-1.78-1.53-2.65c-.24-.36-.49-.72-.75-1.07s-.53-.66-.8-1-.58-.66-.88-1-.42-.45-.64-.67a12,12,0,0,0-1-.92l.09.09-.57-.44c-.59-.4-1.18-.77-1.79-1.12-.4-.2-.79-.39-1.19-.57s-.81-.33-1.22-.48c-.65-.21-1.31-.38-2-.54l-.33-.06a7.67,7.67,0,0,0-1.06-.13h.12c-.45,0-.89,0-1.34,0-.7,0-1.39.14-2.08.25-.46.1-.91.21-1.36.33s-.9.32-1.35.5-1,.42-1.42.65-1,.52-1.48.79-1,.58-1.44.89h0c-.94.66-1.83,1.37-2.72,2.11l0,0,0,0-.08.06a.1.1,0,0,0,0,0c-3,2.64-5.91,5.49-8.85,8.26-1.27,1.19-2.56,2.37-3.82,3.56-1.5,1.4-3,2.82-4.47,4.22-2.86,2.68-5.8,5.27-8.91,7.65a36.53,36.53,0,0,1-4.39,2.89,31.37,31.37,0,0,1-5,2.29,29.3,29.3,0,0,1-4.7,1.24A15.3,15.3,0,0,1,555,407a25.47,25.47,0,0,1-2.9-.06,8.39,8.39,0,0,1-1.93-.27,13.41,13.41,0,0,1-1.42-.54,13.26,13.26,0,0,1-1.59-.82A17.61,17.61,0,0,1,544,403l-.74-.71c-.23-.24-.45-.49-.67-.74a10.7,10.7,0,0,1-.88-1.21,18.39,18.39,0,0,1-.95-1.61,12.27,12.27,0,0,1-1.22-6.23,18.77,18.77,0,0,1,.18-2.11,22.37,22.37,0,0,1,.51-2.69c.37-1.41.81-2.79,1.29-4.16a33.47,33.47,0,0,1,1.45-3.5c.62-1.26,1.28-2.49,2-3.7.81-1.4,1.67-2.78,2.61-4.1,1.76-2.51,3.67-4.89,5.6-7.27,1.58-1.95,3.17-3.9,4.74-5.86,3.13-3.89,6.31-7.74,9.48-11.61,3.57-4.35,7.09-8.74,10.31-13.37h0c.76-1.11,1.51-2.22,2.23-3.36l1.12-1.82c.35-.56.65-1.15,1-1.73q-3.66,1.24-7.35,2.4-2.45.76-4.92,1.47c-.81.22-1.63.43-2.45.63-.44.11-.89.17-1.33.25s-.86.11-1.29.16c-.75.09-1.5.12-2.25.16s-1.43.05-2.15.05-1.58,0-2.37-.05a23.11,23.11,0,0,1-2.35-.25,29.89,29.89,0,0,1-4-.82c-1.45-.44-2.89-.93-4.3-1.5a76.57,76.57,0,0,1-9.27-4.56c-.83-.48-1.67-1-2.48-1.5s-1.44-1-2.16-1.46-1.55-1.14-2.31-1.73-1.54-1.24-2.26-1.91-1.32-1.25-2-1.9-1.24-1.31-1.84-2-1-1.21-1.5-1.82-1-1.41-1.49-2.14q-1.23-1.86-2.3-3.83c-.75-1.36-1.37-2.78-2-4.2s-1.23-3-1.77-4.53a42.73,42.73,0,0,1-1.33-4.67,41.23,41.23,0,0,1-.74-4.14,20.65,20.65,0,0,1-.22-2.08c0-1.05-.06-2.09-.06-3.14,0-1.48.1-3,.22-4.45s.39-3.21.68-4.8.65-3.18,1.07-4.74a24.64,24.64,0,0,1,2-4.93,37.44,37.44,0,0,1,3-4.57,42.46,42.46,0,0,1,3.61-4.31c.51-.54,1-1.09,1.57-1.6s1.23-1.12,1.89-1.65c.82-.65,1.66-1.28,2.53-1.86s1.56-1,2.34-1.51c1.29-.79,2.62-1.51,3.95-2.22s2.88-1.38,4.34-2a76.12,76.12,0,0,1,9.38-3.18,107.56,107.56,0,0,1,10.64-2.39c1.74-.3,3.49-.58,5.23-.81-3.39-3.86-6.63-7.86-9.68-12-1.44-1.94-2.85-3.92-4.2-5.93-1.49-2.19-2.91-4.42-4.3-6.68s-2.51-4.43-3.7-6.67-2.46-4.74-3.7-7.1c-2.43-4.61-5-9.13-7.83-13.51a100.74,100.74,0,0,0-6.6-8.89l0,0,0,0-.05-.07,0,.06c-.6-.69-1.19-1.38-1.83-2s-1.45-1.44-2.21-2.14h0l-.08-.07.06.05c-.87-.77-1.75-1.52-2.66-2.25s-1.8-1.33-2.71-2c-1.15-.76-2.31-1.5-3.49-2.22s-2.65-1.52-4-2.23c-4-2.07-8.13-3.95-12.28-5.74-4.88-2.11-9.83-4.05-14.82-5.88l0,0c-3.33-1.21-6.69-2.37-10.08-3.42-3.75-1.16-7.52-2.27-11.29-3.36-7.64-2.19-15.33-4.2-23.08-6l.13,0c-1.69-.37-3.37-.72-5.06-1.06s-3.49-.7-5.25-1c-3.33-.58-6.68-1-10-1.41-1.86-.16-3.72-.31-5.58-.41-1.18-.07-2.37-.12-3.56-.16s-2.4-.05-3.6-.07c-4.28-.05-8.56.15-12.83.33h.13c-4.17.2-8.33.42-12.49.69s-8.29.67-12.43,1.08c-8,.79-15.93,1.73-23.89,2.67l-24.81,2.93q-5.75.67-11.51,1.32c-4.12.47-8.24.95-12.37,1.36-8.12.82-16.24,1.59-24.4,1.89q-3.32.12-6.63.2c-2,0-4,.09-6,.08h-3.94c-.81,0-1.61,0-2.42-.05s-1.79,0-2.68-.07l-4-.18c-4.16-.18-8.32-.48-12.48-.8-3.9-.3-7.78-.7-11.65-1.23-2.15-.29-4.3-.58-6.44-.91-2.31-.34-4.61-.71-6.92-1.09-1.89-.31-3.78-.67-5.67-1-1.06-.19-2.1-.43-3.15-.64-.8-.16-1.6-.32-2.39-.5l-3.72-.86c-1-.22-2-.49-3-.74-1.94-.49-3.88-1-5.81-1.54-3.87-1.08-7.75-2.16-11.57-3.42q-3.25-1.07-6.5-2.16c-2.06-.7-4.1-1.45-6.14-2.19q-5.56-2-11.11-4.06-11.87-4.37-23.71-8.75L112.24,115l-6.07-2.24c-2-.76-4-1.54-6-2.35-1.77-.72-3.52-1.51-5.28-2.27-2-.88-4-1.8-6-2.71-.89-.4-1.75-.85-2.62-1.28-.71-.34-1.41-.72-2.11-1.09-2-1.09-4.09-2.22-6.11-3.36-3.31-1.86-6.59-3.78-9.79-5.82-1.78-1.13-3.54-2.28-5.31-3.43-.95-.63-1.88-1.3-2.83-2-.79-.54-1.57-1.11-2.35-1.67s-1.3-.93-1.94-1.41-1.49-1.09-2.23-1.66l-2.83-2.21c-1-.75-1.89-1.52-2.84-2.29-.62-.5-1.25-1-1.87-1.55S44.64,76.57,44,76L41.1,73.5c-.66-.57-1.3-1.16-1.94-1.73s-1.4-1.24-2.07-1.89l-2.61-2.51c-.63-.61-1.24-1.25-1.86-1.87-.79-.82-1.58-1.63-2.35-2.46s-1.38-1.45-2-2.21l-2.4-2.78c-.47-.55-.91-1.13-1.36-1.7L23.42,55c-.32-.42-.62-.85-.93-1.28-.8-1.1-1.59-2.2-2.36-3.32S18.69,48.29,18,47.22c-1.4-2.11-2.79-4.24-4.1-6.41L12.5,38.52c-.24-.39-.45-.81-.67-1.21l-1.17-2.16c-.24-.44-.45-.91-.67-1.36-.52-1.07-1-2.13-1.51-3.21-.56-1.25-1.1-2.5-1.64-3.76s-1-2.47-1.51-3.72S4.5,20.85,4.1,19.72c-.22-.62-.41-1.26-.61-1.89-.11-.33-.22-.65-.32-1-.4-1.31-.79-2.61-1.15-3.92A71,71,0,0,1,.54,5.86Q.25,4.15.06,2.44A8.91,8.91,0,0,1,0,1,1,1,0,0,1,1,0,1,1,0,0,1,2,1c0,.26,0,.52,0,.79.14,1.74.46,3.47.76,5.19l0-.13.48,2.54c.15.74.34,1.47.51,2.21.07.27.15.55.22.83.15.51.29,1,.43,1.52.24.87.53,1.73.79,2.59a.93.93,0,0,1,0-.13c.35,1.09.7,2.18,1.08,3.27.25.68.49,1.36.74,2.05s.49,1.25.74,1.87c1,2.5,2.08,5,3.18,7.42l-.06-.12c.51,1,1,2.07,1.52,3.11.27.57.61,1.12.91,1.68l.91,1.68c.33.6.71,1.19,1.07,1.78L16.29,41c.36.6.75,1.18,1.13,1.77l1.13,1.76a.61.61,0,0,0-.07-.1l2.1,3.15c.69,1,1.42,2.06,2.13,3.09s1.48,2,2.21,3.06c.37.5.78,1,1.16,1.47l1.16,1.47-.08-.1c1,1.18,2,2.37,3.06,3.52l2.25,2.43c.69.75,1.41,1.45,2.12,2.17C35.78,65.86,37,67,38.24,68.21s2.5,2.29,3.76,3.43a.39.39,0,0,0-.1-.08c1.43,1.23,2.84,2.47,4.29,3.68l2.44,2c1,.85,2,1.65,3.06,2.47.74.61,1.5,1.18,2.25,1.77s1.3,1,2,1.48,1.47,1.12,2.23,1.66l2.84,2c2,1.38,4,2.77,6.09,4.09s4.1,2.6,6.19,3.84,4.27,2.51,6.44,3.73,4.5,2.48,6.77,3.69c1.2.59,2.4,1.19,3.62,1.75l4.61,2.08c1.22.54,2.44,1.08,3.66,1.6l2.38,1c.81.34,1.63.65,2.45,1,1.25.51,2.52,1,3.79,1.44l4.73,1.75,8.74,3.23q17.53,6.51,35.12,13l-.12,0c3.31,1.2,6.62,2.4,9.94,3.57,3.48,1.23,7,2.34,10.53,3.44.79.25,1.58.46,2.38.69l1.84.54c1.77.49,3.53,1,5.3,1.46,2.06.56,4.11,1.09,6.18,1.61,1.65.41,3.31.77,5,1.15h0l.07,0h0l4.26.86c1.28.26,2.56.47,3.85.7,2.62.47,5.25.91,7.88,1.3,2.85.43,5.69.87,8.54,1.22l4.34.52c.65.08,1.31.12,2,.19l2.67.26c6.7.52,13.41,1,20.13,1.16l2.54.07h2.74c1.82,0,3.64,0,5.45,0l5.1-.11c1.7,0,3.39-.11,5.08-.17h-.13c1.91-.1,3.83-.19,5.74-.32,2.29-.16,4.57-.33,6.85-.53q5.89-.48,11.75-1.12c8.19-.87,16.37-1.81,24.54-2.77s16.13-1.92,24.19-2.86c8.28-1,16.55-1.92,24.84-2.75,8.07-.8,16.17-1.26,24.27-1.6,4-.17,8.05-.31,12.07-.26,1.94,0,3.87.07,5.81.18s4.05.26,6.07.43c1.61.15,3.22.36,4.82.58q2.83.39,5.65.87c2,.34,3.95.75,5.92,1.14,1.77.35,3.55.73,5.32,1.13,3.86.89,7.69,1.86,11.53,2.85s7.63,2,11.43,3.15q5.44,1.56,10.86,3.23c3.34,1,6.66,2.18,9.95,3.38,6.91,2.54,13.75,5.28,20.43,8.37,2.75,1.26,5.48,2.57,8.14,4a71.7,71.7,0,0,1,8.11,5.1c.62.44,1.22.9,1.81,1.38s1.2,1,1.79,1.54.94.83,1.39,1.27c.71.69,1.4,1.4,2.06,2.13,1,1.14,2,2.33,3,3.54,1.13,1.44,2.22,2.92,3.29,4.42,1.82,2.55,3.43,5.25,5,8s3.15,5.52,4.63,8.34c1.58,3,3.11,6,4.71,9q1.22,2.3,2.54,4.51c.82,1.38,1.7,2.72,2.57,4.08l0-.05c2,3,4,5.93,6.15,8.82,2.31,3.11,4.74,6.11,7.23,9.08l-.09-.1q1.5,1.74,3,3.46l.24,0c0-.5,0-1,0-1.49a117.9,117.9,0,0,1,1.22-12c.45-3.25.91-6.49,1.33-9.74.54-4.06.93-8.14,1.5-12.2a49.88,49.88,0,0,1,2.35-10.17,40,40,0,0,1,2.07-4.69,22.79,22.79,0,0,1,1.28-2.11,30.19,30.19,0,0,1,2.06-2.71,24,24,0,0,1,3.68-3.29,17,17,0,0,1,1.85-1.17c.67-.37,1.38-.69,2.08-1a38.4,38.4,0,0,1,7.94-2.59,32.42,32.42,0,0,1,7.54-.79,24.88,24.88,0,0,1,7.25,1.27,20.83,20.83,0,0,1,3.23,1.36,30.17,30.17,0,0,1,3.61,2.19,43.73,43.73,0,0,1,3.47,2.76,47.06,47.06,0,0,1,3.47,3.45c2.39,2.56,4.45,5.38,6.58,8.16,2.25,2.94,4.57,5.84,7,8.66l0,0c.91,1.05,1.83,2.09,2.78,3.09s2,2,3,2.91h0q1.3,1.14,2.73,2.16c.51.33,1,.64,1.57.93s1,.48,1.48.68,1,.29,1.49.4l-.13,0c.34.06.68.12,1,.16l.93.05.43,0-.14,0a5.3,5.3,0,0,0,.81-.18l.72-.3c.27-.14.52-.28.77-.43s.46-.32.69-.49.69-.65,1-1,.67-.81,1-1.24.59-1,.86-1.44c.38-.74.71-1.49,1-2.27a.56.56,0,0,0,0,.12c.2-.55.39-1.11.55-1.67s.31-1.14.44-1.71c.2-1,.36-2,.48-3.07s.14-1.85.16-2.78,0-2,0-3v.13c-.08-1.75-.23-3.5-.41-5.24s-.45-3.73-.69-5.59a77,77,0,0,1-.81-10.5,44.68,44.68,0,0,1,.36-4.91,37.41,37.41,0,0,1,1.18-5.34,21.64,21.64,0,0,1,1.71-4.27c.39-.73.8-1.43,1.24-2.14s1-1.45,1.51-2.16,1-1.15,1.44-1.69c.28-.3.56-.58.85-.87s.43-.36.64-.54a18.6,18.6,0,0,1,1.69-1.22,9.51,9.51,0,0,1,1.59-.81,11.1,11.1,0,0,1,3.63-.88c.51,0,1,0,1.53,0,.23,0,.46.05.7.07a7.67,7.67,0,0,1,1.76.43,10.26,10.26,0,0,1,2.6,1.42,15.87,15.87,0,0,1,2.74,2.63,30.33,30.33,0,0,1,2.49,3.46,47.44,47.44,0,0,1,2.47,4.61c.79,1.66,1.49,3.35,2.15,5.06s1.26,3.46,1.76,5.25a48.94,48.94,0,0,1,1.12,4.79c.28,1.69.5,3.37.64,5.07.27,3.19.39,6.41.46,9.61.08,3.46.07,6.92,0,10.38a128.79,128.79,0,0,1-3.09,22.78c-.66,3-1.41,6-2.2,9-.84,3.2-1.83,6.36-2.86,9.5-.8,2.43-1.62,4.85-2.4,7.29s-1.48,4.72-2.19,7.09c3.16-2.25,6.28-4.58,9.38-6.92,5.26-4,10.44-8.08,15.85-11.87,3.17-2.22,6.44-4.32,9.74-6.35A115.11,115.11,0,0,1,729,224.93c1.78-.84,3.57-1.64,5.4-2.38,1.68-.68,3.39-1.3,5.1-1.9,2.91-1,5.86-1.89,8.83-2.66,1.53-.4,3.1-.66,4.66-.94s3.32-.52,5-.73a66.78,66.78,0,0,1,9.9-.43,48.93,48.93,0,0,1,5.67.5,41.08,41.08,0,0,1,5.81,1.22,31.46,31.46,0,0,1,9.34,4.39,29.21,29.21,0,0,1,3.61,3.06,19.81,19.81,0,0,1,1.43,1.61,18.46,18.46,0,0,1,1.51,2.22,29.53,29.53,0,0,1,2,4.24,24.27,24.27,0,0,1,1.28,4.69,23.52,23.52,0,0,1-.2,8.69,29,29,0,0,1-3,8,30.82,30.82,0,0,1-2.52,3.86,38.56,38.56,0,0,1-3.45,4c-2.85,2.92-6,5.51-9.08,8.15l.1-.09c-.79.69-1.57,1.37-2.34,2.07s-1.46,1.41-2.14,2.16c-.45.52-.89,1-1.3,1.56s-.77,1-1.13,1.52-.47.74-.69,1.12c-.27.57-.53,1.14-.76,1.73-.12.36-.23.73-.33,1.1a13.37,13.37,0,0,0-.25,1.52c0,.35,0,.69,0,1,0,.54.08,1.08.16,1.62l0-.08c.15.76.33,1.49.55,2.23h0a43,43,0,0,0,2.17,5.21c1.52,3.12,3.06,6.22,4.49,9.38a96.7,96.7,0,0,1,3.83,10c.56,1.76,1,3.58,1.38,5.38a46.63,46.63,0,0,1,.82,5.51,37.06,37.06,0,0,1,.14,4.83,32.25,32.25,0,0,1-.53,5,34,34,0,0,1-1.12,4.33c-.22.66-.47,1.31-.75,1.94A25.93,25.93,0,0,1,781.3,342a42.93,42.93,0,0,1-2.74,4.18c-.57.76-1.21,1.49-1.83,2.21s-1.36,1.48-2.05,2.21c-1.28,1.35-2.64,2.62-4,3.86a56.4,56.4,0,0,1-4.69,3.73,70.74,70.74,0,0,1-10.35,6.18,76.41,76.41,0,0,1-20,6.5c-1.57.3-3.15.52-4.74.71-1.82.22-3.65.39-5.49.5-1.64.09-3.29.13-4.94.11a45.37,45.37,0,0,1-5.47-.32,38.79,38.79,0,0,1-4.15-.75q-2.42-.55-4.78-1.27c-1.73-.53-3.43-1.18-5.1-1.87a45.35,45.35,0,0,1-5.12-2.57,28.63,28.63,0,0,1-3.22-2.15q.39,5.89.55,11.81c.07,3.18.09,6.36,0,9.54-.1,3-.27,6-.56,9-.14,1.49-.31,3-.52,4.46-.26,1.86-.55,3.72-1,5.57s-.9,3.7-1.48,5.52a48.62,48.62,0,0,1-2.25,5.61c-.34.74-.72,1.45-1.11,2.16s-.89,1.61-1.37,2.4c-1,1.67-2.07,3.28-3.21,4.86a44.91,44.91,0,0,1-3.39,4.26A41.12,41.12,0,0,1,674.7,432a34.45,34.45,0,0,1-7.86,5.11,27.08,27.08,0,0,1-4.38,1.45,12.58,12.58,0,0,1-3.13.36C658.89,438.88,658.46,438.86,658,438.83Zm.77-2h1c.5,0,1-.09,1.5-.15s1-.22,1.5-.35,1-.31,1.56-.47l-.13,0c.75-.27,1.49-.56,2.21-.88s1.16-.59,1.73-.91,1.15-.68,1.71-1h0a43.52,43.52,0,0,0,3.62-2.74c1.17-1,2.28-2.16,3.35-3.31a58.87,58.87,0,0,0,4.11-5.32l0,.06a71.33,71.33,0,0,0,3.85-6.31c.41-.8.8-1.59,1.18-2.4s.77-1.82,1.13-2.74v0c.39-1.07.77-2.14,1.08-3.23s.63-2.3.9-3.47l0,.13c.23-1,.44-2,.62-3,.15-.83.26-1.68.38-2.52.24-1.74.45-3.49.62-5.24q.46-5.31.57-10.63c.07-4,0-8-.19-12v.13c-.13-3-.3-6-.53-9-.28-.25-.54-.53-.8-.79-.64-.62-1.23-1.3-1.82-2a53.77,53.77,0,0,1-3.5-4.44,41.54,41.54,0,0,1-3-5.2,36.76,36.76,0,0,1-1.79-4.3,43.81,43.81,0,0,1-1.39-4.66,103.77,103.77,0,0,1-1.92-11.05c-.47-4.08-.76-8.17-.92-12.26s-.24-8-.22-12c0-3.82,0-7.63.14-11.44-.21-.41-.41-.82-.62-1.22-.48-.93-1-1.83-1.52-2.74-1-1.73-2-3.42-3.13-5.08a.35.35,0,0,1,0,.08,123.11,123.11,0,0,0-8.47-11.26l.09.1-1.26-1.44a71.57,71.57,0,0,1-7.32,2.86c-1.79.58-3.58,1.09-5.4,1.55s-3.8.84-5.71,1.16a70.32,70.32,0,0,1-11.22,1c-1.76,0-3.53-.09-5.28-.26a55.41,55.41,0,0,1-6.3-1,39.88,39.88,0,0,1-5.35-1.55c-1.77-.61-3.51-1.32-5.22-2.07a84.6,84.6,0,0,1-8.29-4.31c-3-1.76-5.88-3.71-8.71-5.73a106.14,106.14,0,0,1-9-7.22c-2.86-2.56-5.57-5.28-8.23-8-1.17-1.22-2.32-2.45-3.47-3.7,0,.19,0,.38,0,.57.1,1.07.25,2.13.43,3.19l0-.13c.23,1.23.49,2.44.77,3.65s.61,2.28,1,3.41v0c.56,1.71,1.18,3.39,1.86,5.06s1.57,3.59,2.39,5.36,1.53,3.32,2.27,5c.81,1.83,1.58,3.67,2.34,5.51,1.46,3.55,2.89,7.12,4.19,10.73q.87,2.4,1.6,4.85c.25.84.47,1.7.69,2.55s.43,1.77.59,2.66a46.59,46.59,0,0,1,.61,5.52,49.28,49.28,0,0,1-.06,5.7,40.58,40.58,0,0,1-.59,5A46.43,46.43,0,0,1,587.4,319c-.52,1.68-1.12,3.33-1.75,5a1,1,0,0,1,.73.6,1,1,0,0,1-.56,1.3l-1.15.41c-.55,1.17-1.16,2.32-1.8,3.45-.8,1.41-1.7,2.77-2.6,4.12s-2,2.87-3,4.28c-2.25,3.09-4.64,6.07-7.06,9s-4.77,5.8-7.15,8.71c-2.07,2.54-4.11,5.11-6.18,7.65-2.62,3.25-5.3,6.45-7.71,9.86v0l-.07.09.06-.07c-.68,1-1.35,2-2,3.07s-1.2,2.06-1.77,3.12c-.36.71-.73,1.42-1,2.16s-.66,1.61-1,2.43c-.51,1.45-1,2.92-1.35,4.42-.09.41-.18.83-.25,1.25s-.12.83-.17,1.25-.08,1-.11,1.44,0,.89,0,1.33.07.86.12,1.29l0-.13a7.5,7.5,0,0,0,.31,1.24s0-.08,0-.12c.19.56.4,1.12.65,1.67s.53,1,.83,1.43.48.67.73,1h0c.19.22.38.43.59.64s.45.45.69.67l-.06,0,.1.09h0c.63.55,1.27,1.06,2,1.55.53.33,1.07.65,1.63.94.36.18.72.34,1.1.5l.57.19a9.77,9.77,0,0,0,1.71.23h-.13c.92,0,1.84.06,2.76,0h-.13c.45,0,.89,0,1.33-.09s.82-.11,1.23-.18c1.19-.27,2.37-.58,3.53-.94l-.13,0c.56-.19,1.12-.39,1.67-.6s1-.44,1.53-.67h0c1.33-.65,2.61-1.38,3.88-2.16A69.43,69.43,0,0,0,574,395.7l-.1.08c3-2.59,5.89-5.33,8.78-8.06l3.74-3.48c1.61-1.51,3.21-3,4.8-4.57,1.38-1.31,2.76-2.6,4.18-3.86a34.69,34.69,0,0,1,4.07-3.17,28.77,28.77,0,0,1,4.29-2.26,15.72,15.72,0,0,1,4.32-1.12,12.61,12.61,0,0,1,4.29.13c.71.16,1.39.34,2.08.56a20.12,20.12,0,0,1,2.1.86,15.7,15.7,0,0,1,1.7.95A11.21,11.21,0,0,1,620,373c.45.4.87.81,1.29,1.25s.62.66.92,1a22.88,22.88,0,0,1,1.79,2.27c.5.74,1,1.51,1.4,2.29s.71,1.37,1,2.07.63,1.44.94,2.17.69,1.72,1,2.59c1.14,3.34,2.11,6.75,3,10.17,1.64,6.14,3,12.35,5,18.42l0-.05,0,.1v0c.34,1,.7,2,1.1,3s.82,1.94,1.26,2.89.91,1.81,1.39,2.7.94,1.6,1.43,2.37.85,1.26,1.31,1.86.88,1.13,1.35,1.68l.8.88c.28.29.56.56.85.83.65.55,1.32,1.06,2,1.56.9.6,1.82,1.16,2.77,1.68.7.34,1.4.65,2.13.94s1.48.46,2.23.65l-.13,0,1.5.31c.47.08.94.13,1.41.18Zm65.63-66.77h-.13a79.91,79.91,0,0,0,21.37-3.85c1.35-.46,2.7-.94,4-1.46s2.82-1.19,4.2-1.83,2.79-1.4,4.15-2.15,2.86-1.67,4.26-2.55c1.11-.74,2.2-1.51,3.27-2.29s2-1.55,3-2.37a73.73,73.73,0,0,0,6.61-6.5v0c.82-.95,1.61-1.92,2.35-2.92.48-.7,1-1.4,1.4-2.11s.87-1.47,1.28-2.22h0l.06-.11a.21.21,0,0,1,0,.06c.19-.36.38-.73.54-1.1s.29-.7.42-1.05a.24.24,0,0,0,0,.08l0-.1v0h0c.42-1.18.77-2.37,1.07-3.58a.13.13,0,0,0,0,.06l0-.1v0c.13-.62.26-1.25.36-1.87s.18-1.3.24-1.95c.07-.8.11-1.6.13-2.41s0-1.63,0-2.44v0c-.06-1-.14-2-.26-3.06s-.28-2-.45-3a65.64,65.64,0,0,0-1.81-7.05l0,.06,0-.12h0c-.69-2.05-1.44-4.07-2.27-6.07s-1.73-4-2.66-6c0,0,0,0,0,.05q-1.31-2.73-2.66-5.45c-.71-1.45-1.39-2.92-2-4.42a16.08,16.08,0,0,1-1.34-7.67,12.48,12.48,0,0,1,1.07-3.78,13.8,13.8,0,0,1,1-2c.52-.8,1.09-1.55,1.68-2.29s1.19-1.39,1.8-2.07c.79-.86,1.68-1.63,2.54-2.4,1.62-1.46,3.32-2.84,5-4.26l-.1.08c1.24-1.07,2.48-2.16,3.67-3.3s2.17-2.15,3.2-3.27,1.86-2.26,2.71-3.45c.34-.5.67-1,1-1.54s.57-1,.84-1.53a35.61,35.61,0,0,0,1.44-3.29s0,0,0,.06l0-.08,0-.05,0,0c.31-.91.58-1.81.81-2.74.12-.57.24-1.13.33-1.7s.17-1.18.22-1.77a26.22,26.22,0,0,0,.05-2.94c-.06-.74-.14-1.46-.25-2.19-.19-1-.42-2-.7-2.95,0,.05,0,.09,0,.13-.21-.63-.42-1.27-.67-1.89s-.51-1.21-.78-1.8l-.77-1.45c-.27-.48-.58-1-.88-1.42l-.45-.63-.47-.58-1-1.15c-.37-.39-.77-.75-1.16-1.11l.06.05-.06-.05,0,0,0,0-1.22-1c-.41-.33-.85-.63-1.28-.93h0c-.49-.32-1-.63-1.48-.93s-1-.55-1.47-.81l-1.63-.76c-.55-.24-1.12-.45-1.69-.66s-1.42-.48-2.14-.69-1.51-.41-2.26-.59c-.93-.19-1.87-.36-2.8-.52s-2-.25-2.93-.35c-1.17-.1-2.34-.17-3.5-.2s-2.48,0-3.71,0h.13c-1.85.09-3.7.23-5.54.43s-3.93.54-5.89.89h0c-1.65.32-3.28.66-4.89,1.1s-3.38,1-5,1.5l0,0c-1.8.6-3.59,1.21-5.36,1.87-2.5.94-4.94,2-7.35,3.15l.07,0c-2.69,1.31-5.31,2.72-7.9,4.21s-5.29,3.22-7.88,4.9l.07-.05c-2.77,1.82-5.51,3.7-8.19,5.68s-5.4,4-8.07,6.09c-5.08,3.91-10.2,7.77-15.44,11.46q-1.2,4.2-2.19,8.44v0c-.23,1-.44,2-.64,3-.25,1.28-.46,2.57-.67,3.86-.43,2.67-.8,5.35-1.07,8.05-.29,3.49-.47,7-.57,10.5.79,1.58,1.52,3.19,2.23,4.81a94.34,94.34,0,0,1,3.91,10.4q.89,2.88,1.6,5.79c.47,1.93.9,3.87,1.33,5.81.79,3.56,1.63,7.12,2.31,10.71s1.23,7.08,1.7,10.64.84,7.18,1.23,10.78c.31,2.88.62,5.76.85,8.65.72.6,1.46,1.17,2.22,1.72.6.42,1.22.83,1.85,1.21s1.3.75,2,1.11c1,.49,1.91.95,2.89,1.38s2.09.87,3.15,1.26c1.22.42,2.44.82,3.67,1.17s2.36.62,3.54.89l-.13,0,2.18.43c.95.17,1.92.28,2.89.37A72.65,72.65,0,0,0,724.42,370.1Zm-34.21-11.74c-.22-2.39-.49-4.77-.75-7.16-.32-3-.64-6-1-9s-.86-6.17-1.4-9.23l0,.13c-.37-2-.75-4-1.18-6s-1-4.28-1.44-6.43-.91-4.16-1.42-6.23c-.6-2.43-1.29-4.83-2-7.22-1.11-3.33-2.41-6.58-3.84-9.77l0,1.79c0,2.76-.06,5.53,0,8.29,0,3.26.11,6.52.23,9.78v-.13c.14,3.07.33,6.13.63,9.18.27,2.82.68,5.62,1.13,8.41.25,1.31.51,2.62.79,3.93s.59,2.46.95,3.67l0-.09,0,.12h0c.26.75.51,1.49.78,2.23.34.93.7,1.84,1.1,2.74s.84,1.7,1.29,2.54.94,1.64,1.45,2.43h0c.55.81,1.11,1.6,1.7,2.39s1.24,1.56,1.88,2.33c0,0,0-.05,0-.06ZM560,330.32c.73,0,1.47,0,2.2,0h0c.47,0,1,0,1.42-.09.66-.05,1.32-.13,2-.2l1.22-.23c.45-.08.9-.22,1.34-.33.94-.23,1.87-.52,2.8-.79,1.83-.55,3.66-1.12,5.49-1.69l-.13,0c2.32-.75,4.62-1.53,6.92-2.33l.12-.28c.38-.86.71-1.76,1.05-2.64v0q.67-1.9,1.29-3.84c.39-1.27.72-2.57,1-3.87.17-.87.33-1.75.46-2.63s.21-1.7.28-2.55c.09-1.06.15-2.11.17-3.17s0-2.11,0-3.16a46.26,46.26,0,0,0-.59-5.39q-.35-1.7-.78-3.36c-.29-1.15-.65-2.29-1-3.42v0c-1.18-3.6-2.56-7.13-4-10.64s-2.91-7.1-4.49-10.59-3.21-6.82-4.55-10.35a55.82,55.82,0,0,1-2.86-10.4c-.15-.91-.28-1.83-.38-2.75s-.16-1.8-.22-2.7c0-.3,0-.6,0-.9-.36-.39-.71-.79-1.06-1.18-2.23.25-4.43.61-6.64,1l.14,0c-2.37.43-4.72.91-7.06,1.48s-4.6,1.2-6.88,1.9h0c-1.55.51-3.07,1.05-4.58,1.63s-2.85,1.21-4.25,1.86a72.11,72.11,0,0,0-6.62,3.79c-.73.49-1.44,1-2.14,1.51s-1.36,1.08-2,1.64l.1-.08c-.55.51-1.08,1-1.6,1.56s-1,1.05-1.46,1.58l.06-.06c-.57.65-1.14,1.31-1.68,2s-1,1.3-1.47,2l0-.05,0,.06,0,0,0,0c-.44.64-.87,1.28-1.28,1.94s-.79,1.34-1.16,2c-.21.45-.42.89-.62,1.34s-.38.9-.56,1.36-.32.92-.45,1.38c-.19.7-.35,1.4-.52,2.11v-.06l0,.09v0c-.25,1.17-.49,2.34-.7,3.51s-.32,2.28-.44,3.43-.16,2.2-.2,3.31c-.06,1.4,0,2.81,0,4.22v-.13l.09,1.09c0,.38.1.77.15,1.15.1.75.24,1.48.37,2.22l0-.08c.32,1.52.69,3,1.11,4.51,0,0,0-.08,0-.13a72.74,72.74,0,0,0,3.51,8.76c.37.74.75,1.49,1.17,2.2.53.9,1.07,1.78,1.62,2.65.41.62.83,1.23,1.26,1.84s1.07,1.34,1.62,2l-.08-.09c.6.67,1.22,1.32,1.85,2s1.26,1.23,1.9,1.84,1.59,1.38,2.42,2c1,.79,2.08,1.54,3.15,2.29.89.57,1.78,1.15,2.71,1.68,1.08.63,2.19,1.24,3.29,1.83l-.08,0,.11.06h0c1.2.62,2.39,1.22,3.62,1.78s2.62,1.14,4,1.64l2,.7c.66.21,1.33.38,2,.55h0c.74.15,1.48.29,2.23.41s1.39.19,2.09.26S559.2,330.32,560,330.32ZM667.15,277a108.51,108.51,0,0,1,6.63,9.7c.54.89,1.06,1.79,1.57,2.7.08-1.87.19-3.73.34-5.59.32-4.07.91-8.12,1.62-12.14.54-3.1,1.24-6.17,2.05-9.21l.42-1.58c-2.32,1.58-4.69,3.09-7.09,4.55a101.14,101.14,0,0,1-9.29,5l-1.14.53C664,272.86,665.58,274.89,667.15,277Zm-37.33-.64c1.24,0,2.47,0,3.7-.05h-.13a83,83,0,0,0,9.17-1,78.83,78.83,0,0,0,9.93-2.5q3.27-1.12,6.43-2.51l-.67-.71c-1.15-1.19-2.35-2.34-3.57-3.45h0c-.74-.66-1.49-1.3-2.26-1.93s-1.78-1.34-2.7-2l0,0q-2.4-1.65-4.88-3.17c-1.63-1-3.32-1.92-5-2.81q-3.76-1.94-7.63-3.68c-1.39-.63-2.81-1.19-4.23-1.75s-2.77-1.08-4.17-1.6l0,0a161.63,161.63,0,0,0-18.28-5.53l.13,0c-3-.67-6-1.27-9-1.75-1.61-.26-3.23-.5-4.85-.71s-3.08-.34-4.62-.49c-4.21-.32-8.44-.5-12.67-.42h.13c-1.36.07-2.72.17-4.07.28,0,.24,0,.47,0,.7,4.19,4.63,8.53,9.11,13.13,13.33,1.74,1.55,3.52,3,5.36,4.48s3.69,2.77,5.59,4.1l-.11-.07q2.64,1.8,5.37,3.5c1.68,1,3.42,2,5.16,2.93l-.07,0,.09,0h0c1.29.67,2.6,1.31,3.92,1.92,1.56.72,3.16,1.35,4.77,1.94a56.1,56.1,0,0,0,5.68,1.69l-.12,0c1.13.24,2.27.46,3.42.63s2.17.29,3.26.39S628.58,276.28,629.82,276.31Zm-48.11-37.89c3.13.14,6.24.36,9.35.71s6.21.85,9.3,1.41,6.32,1.28,9.43,2.09a171.4,171.4,0,0,1,21.45,7.29c3.59,1.46,7.07,3.21,10.51,5a91.72,91.72,0,0,1,10,6.19,48.76,48.76,0,0,1,4.27,3.45c1.39,1.23,2.7,2.54,4,3.87l.87.92,1.79-.84-.11.06c2.35-1.14,4.66-2.34,6.94-3.62s4.33-2.59,6.44-4h0c1.59-1.05,3.16-2.11,4.72-3.2q.76-2.62,1.56-5.24c1.12-3.71,2.36-7.38,3.57-11.06,1-2.94,1.87-5.89,2.71-8.87s1.55-6,2.24-9v0c.67-3,1.28-6,1.79-9s.89-6.14,1.18-9.22a161,161,0,0,0,.23-20v.13c-.07-1.7-.16-3.39-.3-5.08s-.36-3.33-.64-5a61.24,61.24,0,0,0-1.7-6.69l0,.13a79.25,79.25,0,0,0-3.44-8.51l.06.12c-.44-.9-.9-1.8-1.4-2.68s-.93-1.58-1.43-2.36l0,.07c-.56-.81-1.14-1.59-1.76-2.34-.42-.46-.84-.92-1.29-1.35s-.85-.73-1.31-1.07c-.28-.19-.57-.37-.86-.54l-1-.43.09,0a6.19,6.19,0,0,0-1-.3l.13,0c-.35-.06-.69-.1-1-.14l-1.09,0h.13c-.37,0-.73,0-1.1.08l.14,0a5.27,5.27,0,0,0-.86.18l-.74.21c-.52.19-1,.4-1.52.63l-.51.29a24,24,0,0,0-2.06,1.54c-.36.35-.7.71-1,1.08s-.72.85-1.07,1.28-.62.84-.92,1.27h0c-.6.91-1.15,1.83-1.67,2.78-.17.35-.34.69-.5,1s-.33.76-.49,1.15c-.23.7-.46,1.39-.67,2.1s-.38,1.44-.55,2.17l0-.12c-.15.71-.29,1.44-.4,2.16s-.19,1.41-.26,2.11c-.07.85-.12,1.69-.15,2.54s0,1.66,0,2.49c.08,1.74.23,3.46.41,5.18s.46,3.72.7,5.57a82.86,82.86,0,0,1,.82,10.56,43.25,43.25,0,0,1-.29,4.69,26.69,26.69,0,0,1-1,4.58,21.27,21.27,0,0,1-1.42,3.54,18.63,18.63,0,0,1-1.88,2.92,11.59,11.59,0,0,1-2,2,7.68,7.68,0,0,1-1.13.71,10.2,10.2,0,0,1-1.76.69,5.89,5.89,0,0,1-2.05.11c-.5,0-1-.11-1.46-.19a11.46,11.46,0,0,1-3.15-1.1c-.49-.25-1-.52-1.45-.8a14.59,14.59,0,0,1-1.51-1.06,35.71,35.71,0,0,1-3.49-3,85,85,0,0,1-6.29-7c-1.79-2.15-3.53-4.36-5.23-6.58s-3.5-4.62-5.38-6.82a58.15,58.15,0,0,0-4.32-4.42,41.84,41.84,0,0,0-3.46-2.76l.11.07a34.19,34.19,0,0,0-3.48-2.1l.08,0c-.78-.39-1.58-.73-2.39-1l.12,0a26,26,0,0,0-3-.89c-1-.2-1.92-.34-2.9-.45a28.65,28.65,0,0,0-2.93-.06,36.56,36.56,0,0,0-4.29.48,44.65,44.65,0,0,0-5.07,1.25h0a41,41,0,0,0-4.52,1.81L587,181c-.44.23-.85.49-1.27.76-.75.56-1.48,1.14-2.19,1.75l.1-.09c-.45.41-.89.83-1.32,1.25l-.58.65-.62.79c-.39.49-.74,1-1.1,1.53l.05-.07c-.26.39-.51.78-.75,1.18s-.43.78-.64,1.17c-.33.67-.66,1.35-.95,2s-.53,1.31-.78,2v0l0,.06,0,.06v0c-.27.8-.52,1.6-.76,2.41s-.43,1.64-.62,2.46c-.62,2.9-1,5.83-1.35,8.76s-.7,6.09-1.1,9.13c-.74,5.61-1.64,11.21-2.17,16.84-.12,1.42-.22,2.84-.27,4.26,0,.26,0,.52,0,.79l1.58-.12c1.6-.12,3.2-.16,4.8-.16S580.15,238.35,581.71,238.42Z"/></g></g></svg>