<svg xmlns="http://www.w3.org/2000/svg" viewBox="0 0 543.7 497.94"><g id="Layer_2" data-name="Layer 2"><g id="Vector_layer" data-name="Vector layer"><path d="M527.63,497.8a60.52,60.52,0,0,1-8-1c-2.66-.52-5.32-1.08-8-1.73-5.4-1.33-10.75-2.94-16-4.7-5.46-1.82-10.87-3.79-16.25-5.84q-8.31-3.18-16.5-6.66c-5.3-2.23-10.56-4.54-15.84-6.83-2.65-1.16-5.3-2.29-8-3.41s-5.12-2.1-7.69-3.12c-1.24-.5-2.5-1-3.76-1.44s-2.61-1-3.92-1.47l-8.07-3c-5.54-2.06-11.08-4.13-16.58-6.3q-7.57-3-15-6.27c-5.33-2.35-10.64-4.74-15.92-7.21-4.78-2.25-9.55-4.56-14.15-7.18a114.57,114.57,0,0,1-13.21-9c-2.11-1.62-4.16-3.33-6.2-5s-4.21-3.58-6.29-5.4-4.26-3.72-6.41-5.57-4.16-3.5-6.26-5.24c-4.09-3.39-8.2-6.79-12.33-10.15s-8.51-6.91-12.85-10.24-9-6.89-13.25-10.62c-8.38-7.33-16.25-15.22-24.21-23-4.12-4-8.26-8-12.32-12.11s-8.18-8.34-12.16-12.62q-2.79-3-5.51-6t-5.5-6.23c-1.79-2.05-3.56-4.11-5.33-6.17s-3.56-4.25-5.32-6.39c-3.55-4.32-7-8.7-10.33-13.2s-6.46-9-9.62-13.57S180.74,262,178,257.22s-5.48-9.9-8-15c-1.18-2.41-2.29-4.86-3.41-7.3s-2.23-4.84-3.36-7.26c-1.21-2.61-2.43-5.22-3.59-7.86-.53-1.19-1-2.38-1.54-3.59-.56-1.4-1.11-2.81-1.66-4.22-.93-2.42-1.81-4.86-2.59-7.33q-1.29-4.1-2.46-8.24c-1.5-5.3-2.87-10.63-4-16q-.92-4.39-1.65-8.82c-1.2-.87-2.39-1.76-3.57-2.65l-.53.32c-2.23,1.33-4.49,2.6-6.8,3.78s-4.8,2.32-7.27,3.31-4.77,1.83-7.21,2.56-4.9,1.46-7.38,2.09-4.86,1.14-7.32,1.58c-2.64.48-5.29.85-8,1.17-5,.6-10.11,1-15.18,1.27-2.73.14-5.48.21-8.22.19-2.36,0-4.72-.12-7.08-.26-4.88-.29-9.74-.94-14.57-1.65-2.55-.38-5.08-.85-7.61-1.32s-5.16-1-7.71-1.61c-1.15-.26-2.28-.55-3.41-.85s-2.49-.73-3.72-1.17a42.15,42.15,0,0,1-7-3.19c-1-.6-2-1.25-3-1.93-.56-.39-1.07-.84-1.59-1.26s-1.11-.93-1.64-1.42a65.84,65.84,0,0,1-5.65-5.68c-.72-.82-1.41-1.67-2.07-2.54-.87-1.13-1.73-2.27-2.53-3.45a49.93,49.93,0,0,1-3.86-7,36.87,36.87,0,0,1-2.3-6.6c-.14-.55-.24-1.12-.33-1.68a16.84,16.84,0,0,1-.2-1.74,18.3,18.3,0,0,1,.22-3.62A15.78,15.78,0,0,1,1.16,135a23.89,23.89,0,0,1,1.42-3,42.74,42.74,0,0,1,3.78-5.8,49.25,49.25,0,0,1,5.35-5.83,73.14,73.14,0,0,1,5.64-4.76,58.11,58.11,0,0,1,6-4q.81-.48,1.65-.93c.57-.3,1.14-.62,1.74-.87,1.11-.47,2.23-.9,3.38-1.28.6-.2,1.2-.38,1.8-.57s1.33-.32,2-.46,1.21-.21,1.82-.3,1.42-.17,2.13-.22a14.29,14.29,0,0,1,1.73,0c.57,0,1.13.08,1.7.14,1.27.12,2.53.37,3.79.59s2.24.47,3.36.73c.69.16,1.37.37,2.05.58s1.45.45,2.16.72c1.26.45,2.47,1,3.69,1.53s2.42,1.17,3.6,1.82,2.23,1.33,3.33,2,2.26,1.43,3.39,2.16c2,1.26,3.91,2.54,5.86,3.82s4,2.64,6,3.94,3.78,2.38,5.69,3.56c4.1,2.53,8.24,5,12.29,7.62,1.77,1.14,3.51,2.33,5.23,3.55s3.66,2.66,5.52,3.95c3.58,2.38,7.28,4.56,11,6.7,1.88,1.08,3.77,2.15,5.62,3.27s3.75,2.3,5.59,3.5c4.44,2.91,8.63,6.17,12.86,9.37.84-.51,1.67-1,2.49-1.54,0-.24-.06-.48-.08-.71q-1-8.37-1.88-16.77-.44-4.14-.8-8.3c-.25-2.75-.44-5.5-.62-8.25-.35-5.45-.63-10.91-.81-16.37-.11-2.93-.21-5.86-.23-8.79,0-1.49,0-3,0-4.46,0-1.67,0-3.33.07-5,0-.66.05-1.32.08-2s.05-1.16.08-1.74c.06-.9.11-1.8.17-2.7s.13-1.64.2-2.46c.21-2.54.45-5.09.83-7.62.22-1.49.45-3,.7-4.45.23-1.32.46-2.64.75-3.94.17-.76.33-1.52.5-2.27.13-.59.31-1.18.47-1.76s.27-1,.43-1.53c.25-.81.51-1.62.77-2.44.09-.28.2-.56.31-.84l.51-1.42c.16-.46.35-.9.53-1.35.26-.63.5-1.25.78-1.87l1-2.26c.31-.7.67-1.38,1-2.07.24-.5.51-1,.77-1.46.65-1.22,1.35-2.41,2.07-3.58A69.85,69.85,0,0,1,157,42.13C158.67,40,160.54,38,162.42,36c3.68-3.86,7.51-7.55,11.46-11.12,2.08-1.88,4.25-3.66,6.41-5.45s4.12-3.35,6.22-5,4.23-3.16,6.39-4.66c1-.67,1.95-1.33,2.93-2s2.27-1.41,3.45-2,2.15-1.14,3.24-1.67c1.29-.63,2.62-1.18,4-1.68a31.22,31.22,0,0,1,3.41-1C211.25,1,212.63.74,214,.48l1.58-.29c.57-.09,1.15-.12,1.73-.16a34.84,34.84,0,0,1,3.54,0,18.56,18.56,0,0,1,3.06.48,21.69,21.69,0,0,1,3.45,1c.31.12.61.26.92.39a11,11,0,0,1,1.45.85,15.73,15.73,0,0,1,1.44,1.11,28.68,28.68,0,0,1,2.6,2.57c.8.86,1.55,1.75,2.3,2.65.42.49.81,1,1.2,1.52a19.38,19.38,0,0,1,1.14,1.7,41.69,41.69,0,0,1,3.13,6.36,54.47,54.47,0,0,1,2.14,6.59c.34,1.29.63,2.61.91,3.92s.52,2.61.74,3.92c.19,1.13.32,2.27.44,3.41.16,1.41.27,2.82.36,4.23.08,1.23.1,2.46.12,3.69s0,2.51,0,3.77q0,4.09-.35,8.18a65.37,65.37,0,0,1-1,7.63c-.45,2.27-1,4.53-1.59,6.76-.35,1.29-.77,2.56-1.2,3.82a39.12,39.12,0,0,1-1.5,3.81c-1.09,2.38-2.4,4.65-3.72,6.92s-2.94,4.69-4.53,7-3.11,4.28-4.77,6.33c-3.29,4.07-6.74,8-10.26,11.89-1.87,2.07-3.78,4.11-5.74,6.09-1.78,1.8-3.64,3.52-5.51,5.22s-4,3.56-6,5.31q-2.82,2.44-5.71,4.82c-2.08,1.69-4.19,3.34-6.29,5s-4,3.18-6.07,4.75-4,3-6,4.49q-3.42,2.46-6.87,4.89c-4.57,3.21-9.13,6.46-13.8,9.54-2.09,1.38-4.2,2.73-6.31,4.08q5.7-2.33,11.5-4.43,3.06-1.12,6.2-2.06c.55-.17,1.11-.28,1.67-.4s1.22-.25,1.84-.36c1.39-.23,2.78-.39,4.18-.49,2.64-.18,5.3-.15,7.95-.17s5.46,0,8.18.13c4.91.2,9.8.57,14.71.7,2.61.06,5.24.12,7.86.14q3.63,0,7.24-.1h0c3.85-.17,7.68-.48,11.51-.87s7.74-.93,11.58-1.62l-.14,0c10-1.84,20-3.84,30.13-5.29,2.9-.42,5.81-.81,8.73-1.1,2.62-.26,5.24-.45,7.86-.59s5.45-.18,8.17-.19,5.38.06,8.06.27c2.42.19,4.85.42,7.24.85a44.41,44.41,0,0,1,7.09,1.72,34.13,34.13,0,0,1,3.48,1.46,22,22,0,0,1,3,1.8,16.92,16.92,0,0,1,2.95,2.45,9.28,9.28,0,0,1,.73,1,12.09,12.09,0,0,1,.67,1.22,7.13,7.13,0,0,1,.6,2,9.58,9.58,0,0,1,.09,2.33,15.78,15.78,0,0,1-1.44,5.23c-.44.94-.95,1.84-1.47,2.73A22.49,22.49,0,0,1,327,174a64.59,64.59,0,0,1-4.82,5.11c-1.65,1.61-3.42,3.12-5.2,4.59-2,1.68-4.14,3.26-6.29,4.77s-4.38,2.94-6.63,4.3-4.31,2.51-6.51,3.64c-1.05.54-2.11,1.06-3.18,1.55s-2.42,1.06-3.64,1.55-2.31.91-3.48,1.32-2.52.82-3.79,1.21c-2.58.79-5.17,1.56-7.79,2.2-1.23.3-2.46.56-3.7.83s-2.64.55-4,.8-2.46.45-3.7.61-2.59.29-3.89.39c-2.48.2-5,.31-7.47.4s-5.05.15-7.58.08-5-.23-7.51-.49c-2.8-.28-5.6-.63-8.39-1-2.41-.33-4.81-.71-7.19-1.25A112.67,112.67,0,0,1,207.77,200c-9.85-3.71-19.59-7.71-29.32-11.72-2.41-1-4.82-2-7.2-3.07s-4.88-2.21-7.29-3.37-4.92-2.36-7.36-3.58c-1.08-.55-2.15-1.11-3.21-1.71-1.25-.71-2.47-1.48-3.68-2.26-.56-.36-1.11-.73-1.65-1.1.06.38.13.75.2,1.13.46,2.51.94,5,1.49,7.5s1.24,5.24,1.9,7.85c1.32,5.13,2.82,10.22,4.41,15.28.48,1.41,1,2.81,1.48,4.21s1.06,2.81,1.61,4.21c1.18,3.06,2.52,6.06,3.88,9s2.68,5.78,4,8.67,2.58,5.63,3.89,8.44v0q3.23,6.71,6.82,13.2c1.21,2.17,2.45,4.33,3.73,6.46s2.63,4.26,4,6.36v0c2.16,3.28,4.41,6.49,6.66,9.7q3.57,5.13,7.31,10.12c2.4,3.23,4.92,6.38,7.45,9.51q4.05,5,8.24,9.89l-.09-.1c3.61,4.18,7.23,8.34,10.94,12.43s7.73,8.31,11.68,12.39,8,8.05,12,12,8.1,7.95,12.16,11.91q7.45,7.29,15.18,14.3l-.06-.06c2.07,1.81,4.15,3.6,6.3,5.32q3.51,2.81,7.07,5.55c2.1,1.61,4.2,3.23,6.28,4.88s4.37,3.51,6.55,5.27q6.27,5.1,12.48,10.27c2.07,1.71,4.14,3.4,6.18,5.14s4.3,3.69,6.43,5.56c3.12,2.72,6.25,5.45,9.45,8.08,1.54,1.26,3.08,2.52,4.65,3.73,1.73,1.33,3.5,2.61,5.29,3.87s3.4,2.33,5.16,3.39c1.94,1.17,3.92,2.26,5.92,3.32l-.07,0,.1,0h0c4.84,2.5,9.75,4.85,14.69,7.11q7.86,3.6,15.81,7c10.36,4.43,20.92,8.34,31.48,12.24,5.39,2,10.79,4,16.1,6.17s10.75,4.54,16.1,6.88,10.58,4.57,15.91,6.77,10.83,4.33,16.29,6.37l3.23,1.19,0,0,.11,0h0c2.28.8,4.55,1.61,6.84,2.37s4.5,1.47,6.77,2.17,4.47,1.33,6.73,1.94c1.14.31,2.28.61,3.43.89s2.22.52,3.33.77c1.6.34,3.19.67,4.8,1,.78.15,1.56.26,2.35.39s1.71.22,2.57.32c1.35.1,2.69.2,4,.27s2.8,0,4.2,0c.61,0,1.22-.07,1.82-.13s1.29-.14,1.93-.23c1.3-.18,2.59-.37,3.88-.58l1.32-.25a1,1,0,0,1,1.21.73,1,1,0,0,1-.73,1.21c-2.31.46-4.65.8-7,1.06-.71.08-1.41.12-2.12.18s-1.18,0-1.77.05h-.74C530.09,497.94,528.86,497.87,527.63,497.8ZM246.84,205.34c2.78,0,5.57-.08,8.35-.2h-.13c2-.1,4-.19,6-.37,1-.09,2-.2,3-.33s2.19-.34,3.29-.53l-.13,0q4.41-.84,8.78-1.9c1.6-.39,3.18-.88,4.76-1.34s3.12-.94,4.68-1.43h0a86.24,86.24,0,0,0,9.16-3.68,114.84,114.84,0,0,0,12-6.84l-.07,0A110.49,110.49,0,0,0,317.05,181h0c1.27-1.09,2.51-2.19,3.72-3.33s2.33-2.34,3.45-3.55h0v0l.08-.08,0,0c.45-.51.89-1,1.33-1.54s.79-1,1.18-1.53l0,.06,0-.07,0,0,0,0a25.58,25.58,0,0,0,1.61-2.72,18.88,18.88,0,0,0,.79-1.78,19.72,19.72,0,0,0,.59-2c.09-.49.17-1,.22-1.47s0-.75,0-1.13V162c0-.36-.07-.7-.12-1.06-.05-.19-.09-.38-.14-.57s-.15-.4-.24-.59c-.2-.42-.43-.81-.67-1.21-.15-.21-.3-.41-.46-.61l.09.09a5.36,5.36,0,0,0-.72-.71l.09.08c-.76-.64-1.55-1.24-2.37-1.81l.1.07c-.79-.52-1.59-1-2.43-1.45s-1.95-.89-3-1.28c-.68-.23-1.36-.45-2.05-.65s-1.67-.43-2.51-.61h0l-.09,0h0c-1.42-.29-2.85-.55-4.29-.75s-2.59-.31-3.89-.43-2.83-.23-4.25-.3-2.65-.07-4-.08c-3.05,0-6.08.06-9.12.19h.13c-2.47.13-4.93.3-7.39.54-2.92.29-5.85.66-8.76,1.08-4.91.71-9.8,1.54-14.69,2.41h0c-5.22.94-10.43,1.94-15.64,2.9s-10.4,1.55-15.64,2q-3.78.33-7.59.49c-2.17.1-4.34.12-6.51.12s-4.28-.05-6.42-.1c-2.71-.06-5.42-.13-8.13-.29-3.68-.21-7.35-.42-11-.53-2.05-.06-4.09-.07-6.14-.06s-4.22,0-6.33.09h0q-1.36.06-2.73.18c-.91.07-1.82.21-2.72.37-1.06.19-2.12.39-3.16.67-.81.21-1.62.48-2.42.74-2.7.9-5.37,1.89-8,2.9-3.25,1.24-6.48,2.51-9.69,3.86l0,.15c.12.89.25,1.77.4,2.65l1.42,1h0c1.15.78,2.3,1.53,3.47,2.27s2.43,1.44,3.68,2.11l-.09-.05.09.05h0c2.19,1.12,4.4,2.2,6.62,3.27s4.5,2.16,6.77,3.18,4.63,2.09,7,3.07,4.6,1.91,6.9,2.86c9.12,3.73,18.24,7.48,27.5,10.88h0a109.1,109.1,0,0,0,12.1,3.61c1.27.28,2.55.52,3.83.74s2.48.36,3.73.53c2.9.38,5.81.73,8.73,1C241.8,205.18,244.32,205.33,246.84,205.34ZM72.42,183.18c3,.08,6,0,9-.1h-.13q5.79-.27,11.56-.83c2-.19,4-.39,6-.65s4.15-.58,6.22-.94c1.35-.24,2.71-.51,4.06-.8s2.64-.61,4-1,2.63-.71,3.93-1.08,2.8-.83,4.2-1.27l-.06,0,.07,0,.06,0h0a97.34,97.34,0,0,0,10.56-4.24l-.12.06c1.68-.81,3.34-1.64,5-2.55q1.92-1.08,3.81-2.19l-.64-.49c-1.67-1.27-3.34-2.54-5-3.78s-3.3-2.38-5-3.54l0,0c-2.54-1.72-5.14-3.35-7.78-4.92-3-1.79-6-3.47-9-5.26-2.56-1.53-5.11-3.07-7.55-4.77s-4.61-3.32-6.93-4.94h0c-3.4-2.31-6.9-4.45-10.4-6.61-3.22-2-6.45-3.94-9.65-6-3.37-2.13-6.68-4.35-10-6.54q-2.67-1.75-5.39-3.47c-1.92-1.22-3.86-2.41-5.87-3.46-1.52-.72-3-1.42-4.6-2h0c-.91-.33-1.82-.64-2.75-.93s-2-.58-3.07-.82-2.15-.45-3.23-.64-2.35-.36-3.54-.47l-.92-.05c-.4,0-.79,0-1.19,0-.59,0-1.18.1-1.78.17s-1.26.19-1.89.31l.09,0c-.42.09-.85.16-1.27.27l-1.54.44h0l-2,.68c-.69.24-1.37.53-2,.81-1,.47-1.94,1-2.88,1.52s-1.79,1.08-2.66,1.65l.07,0c-1.18.79-2.35,1.59-3.48,2.46s-2.21,1.75-3.28,2.66l.06-.05c-.89.77-1.76,1.55-2.62,2.35-1,1-1.94,2-2.86,3-.61.7-1.21,1.4-1.78,2.13s-1,1.31-1.47,2h0Q5.19,131.36,4,133.59l.06-.12c-.25.48-.48,1-.7,1.45s-.35.86-.52,1.29c-.2.63-.38,1.25-.53,1.89l0-.13c-.11.58-.2,1.16-.26,1.75S2,140.91,2,141.51a.62.62,0,0,1,0-.13,21.79,21.79,0,0,0,.26,2.28A30.14,30.14,0,0,0,3,146.74l0-.09c.25.79.52,1.59.82,2.36.39,1,.82,2,1.28,3L5,151.88a58.27,58.27,0,0,0,2.9,5.25c1.37,2,2.85,4,4.41,5.9l0,0c.89,1,1.79,2,2.75,3s2.19,2.14,3.32,3.18l-.07-.07c.57.5,1.14,1,1.73,1.48s1.33,1,2,1.54l1.56,1c.51.32,1.05.6,1.58.88l0,0c.89.47,1.8.9,2.72,1.33s1.94.79,2.92,1.15h0l.1,0h0c1.19.42,2.38.8,3.6,1.13s2.62.67,3.95,1h-.07c4.44,1,8.89,1.87,13.38,2.57,4.11.65,8.25,1.17,12.39,1.58C66.9,183,69.66,183.12,72.42,183.18Zm72.9-14.39-.24-1.62-1.06.66Zm-1.79-36.17c.31,4.6.72,9.18,1.19,13.77s1,9.34,1.53,14c.14,1.14.27,2.28.42,3.42,1.7-1.08,3.41-2.17,5.11-3.27h0l.11-.07,0,0c1.95-1.28,3.9-2.56,5.83-3.88s3.93-2.73,5.89-4.1c3.89-2.74,7.8-5.45,11.64-8.26q2.73-2,5.43-4c1.72-1.3,3.4-2.65,5.1-4,3.73-2.93,7.48-5.85,11.09-8.94l0,0c3.49-3,7-6,10.32-9.15,1.7-1.6,3.35-3.23,5-4.92,1.76-1.85,3.48-3.73,5.19-5.62l0,0q3.75-4.2,7.35-8.51c2.47-3,4.77-6,7-9.16l-.07.1c1.25-1.83,2.46-3.69,3.59-5.6,1-1.69,2-3.42,2.89-5.16.34-.69.68-1.38,1-2.08s.56-1.35.82-2l0,.05c.6-1.66,1.13-3.33,1.62-5,.41-1.42.74-2.86,1.07-4.3,0,0,0,.09,0,.13.31-1.42.61-2.84.86-4.27s.42-3.07.57-4.6c.11-1.28.2-2.55.28-3.82s.11-2.73.13-4.09c0-2.42,0-4.84-.06-7.25a.57.57,0,0,1,0,.13,78.62,78.62,0,0,0-1-9.44c-.31-1.7-.65-3.4-1.05-5.08-.19-.8-.38-1.61-.6-2.41s-.49-1.73-.75-2.59c-.35-1-.71-2-1.09-3s-.9-2.13-1.38-3.18c-.34-.66-.68-1.31-1-2s-.75-1.27-1.15-1.9-.72-1-1.1-1.49-.84-1-1.27-1.54a.43.43,0,0,0,.09.1c-.61-.7-1.21-1.39-1.84-2.06-.36-.39-.73-.77-1.09-1.14s-.57-.54-.86-.81L229.36,5c-.22-.19-.47-.35-.71-.53l.07,0-.08-.06,0,0,0,0a8.84,8.84,0,0,0-1.26-.74l.11.06c-.39-.17-.79-.34-1.18-.49a25.58,25.58,0,0,0-2.59-.75l-1.42-.29c-.49-.09-1-.14-1.49-.19-1.1,0-2.2-.06-3.31,0-.35,0-.71,0-1.07.08s-.89.13-1.34.21a65.87,65.87,0,0,0-6.77,1.6l.13,0c-1.63.55-3.22,1.21-4.79,1.92q-1.71.84-3.39,1.74c-.59.32-1.18.64-1.76,1s-1.17.72-1.74,1.09h0l-.09.06.08,0q-2.43,1.6-4.82,3.3-2.62,1.89-5.17,3.87c-3.4,2.63-6.71,5.39-10,8.19l.05,0-.1.08h0c-1.42,1.25-2.82,2.51-4.21,3.8s-2.74,2.61-4.1,3.93c-2.8,2.71-5.47,5.55-8.09,8.44l.09-.1-1.31,1.54c-.4.47-.77,1-1.15,1.45-.79,1-1.52,2-2.26,3.09s-1.51,2.27-2.19,3.45l-1,1.79c-.36.64-.69,1.3-1,1.95-.54,1.11-1.08,2.21-1.58,3.33s-1.08,2.5-1.6,3.76c0,0,0-.08,0-.12-.27.76-.55,1.51-.82,2.27s-.45,1.36-.67,2c-.16.51-.33,1-.46,1.52l-.66,2.45,0-.13c-.17.76-.34,1.52-.5,2.27s-.31,1.54-.45,2.31c-.25,1.31-.49,2.62-.69,3.93-.12.86-.25,1.71-.38,2.56-.1.7-.17,1.4-.25,2.09-.16,1.38-.29,2.75-.43,4.13,0,0,0,0,0-.07-.1,1.18-.21,2.37-.29,3.56-.1,1.56-.18,3.12-.25,4.69-.1,2.63-.15,5.26-.13,7.89,0,2.92.06,5.84.14,8.75.08,2.52.18,5,.28,7.54a.57.57,0,0,1,0-.13Q143.07,125.82,143.53,132.62Z"/></g></g></svg>